<svg id="svg" version="1.1" xmlns="http://www.w3.org/2000/svg" xmlns:xlink="http://www.w3.org/1999/xlink" width="400" height="399.91113085980896" viewBox="0, 0, 400,399.91113085980896"><g id="svgg"><path id="path0" d="M137.833 135.086 C 135.907 135.480,133.611 136.574,132.417 137.669 C 131.470 138.536,130.719 138.718,130.044 138.246 C 127.360 136.366,122.195 135.228,120.317 136.103 C 120.097 136.206,119.522 136.463,119.039 136.675 C 117.949 137.152,116.849 138.481,116.715 139.480 L 116.626 140.140 115.188 140.246 C 110.443 140.597,107.828 141.039,105.750 141.842 C 104.489 142.329,102.667 143.502,102.667 143.827 C 102.667 143.909,102.568 144.075,102.447 144.196 C 101.848 144.797,101.661 146.469,102.064 147.612 L 102.295 148.266 101.239 148.814 C 99.049 149.949,97.595 151.887,97.233 154.155 L 97.128 154.806 95.689 155.250 C 93.591 155.896,92.824 156.190,91.000 157.048 C 89.168 157.911,88.124 159.469,88.492 160.794 C 88.587 161.137,88.665 161.463,88.666 161.520 C 88.666 161.577,88.085 161.829,87.375 162.080 C 81.802 164.052,78.215 168.226,79.926 170.748 L 80.352 171.376 79.697 172.313 C 75.845 177.823,75.400 185.887,78.824 188.128 C 79.277 188.424,79.745 188.668,79.865 188.669 C 80.344 188.675,80.540 189.008,80.756 190.186 C 82.712 200.831,85.742 206.205,88.545 204.000 C 89.133 203.538,89.167 203.563,89.168 204.458 C 89.177 211.767,93.571 215.979,98.667 213.563 C 100.773 212.565,102.702 210.173,103.097 208.072 C 103.156 207.757,103.245 207.500,103.296 207.500 C 103.429 207.500,105.042 208.537,105.309 208.794 C 105.433 208.913,105.822 209.157,106.173 209.336 C 107.063 209.791,107.068 209.822,106.424 211.192 C 105.393 213.388,105.034 217.338,105.598 220.268 C 105.695 220.771,105.676 220.789,104.981 220.900 C 102.891 221.235,100.667 223.503,100.667 225.300 C 100.667 225.547,100.515 225.658,100.063 225.743 C 99.731 225.805,99.337 225.918,99.188 225.994 C 99.039 226.070,98.405 226.378,97.780 226.680 C 95.444 227.807,94.213 229.860,94.044 232.910 L 93.952 234.569 92.913 235.593 C 89.833 238.628,89.485 244.437,92.084 249.445 C 92.499 250.246,92.896 250.942,92.965 250.992 C 93.034 251.042,93.217 251.281,93.370 251.523 L 93.649 251.962 92.700 252.311 C 88.326 253.919,86.822 256.094,88.850 257.880 C 90.153 259.027,91.855 259.755,96.583 261.185 C 96.858 261.268,98.246 261.569,99.667 261.854 C 101.087 262.139,102.587 262.441,103.000 262.525 C 111.670 264.300,131.933 265.348,147.583 264.832 C 157.537 264.503,168.856 263.499,173.750 262.511 C 174.208 262.419,175.889 262.077,177.486 261.751 L 180.388 261.158 181.486 261.566 C 184.766 262.785,190.635 263.207,192.322 262.346 C 192.466 262.272,192.912 262.162,193.314 262.101 C 194.461 261.925,195.770 261.215,196.910 260.148 C 197.815 259.302,197.988 259.201,198.168 259.418 C 199.045 260.476,201.510 261.611,204.085 262.143 C 210.271 263.423,226.671 262.665,228.786 261.002 C 229.163 260.705,229.192 260.710,230.293 261.272 C 233.897 263.110,238.370 262.764,240.927 260.449 L 241.747 259.707 242.748 260.418 C 245.669 262.489,252.634 263.523,255.721 262.343 C 255.920 262.267,256.496 262.111,257.000 261.996 C 258.974 261.549,261.084 259.761,262.035 257.727 L 262.548 256.632 262.952 257.149 C 263.302 257.596,264.557 258.707,265.858 259.722 C 269.388 262.474,276.883 263.552,281.664 261.994 C 283.698 261.332,287.451 259.058,287.692 258.342 C 287.724 258.247,288.107 258.611,288.543 259.150 C 289.628 260.491,291.089 261.341,293.500 262.033 L 295.417 262.583 304.167 262.583 C 311.896 262.583,313.131 262.547,314.750 262.276 C 321.837 261.088,323.979 258.269,322.908 251.540 C 321.972 245.660,319.196 243.340,313.983 244.081 C 313.030 244.216,311.921 244.329,311.519 244.330 L 310.789 244.333 311.965 243.745 C 312.719 243.368,313.492 242.798,314.113 242.162 C 315.028 241.225,315.128 241.169,315.875 241.168 L 316.667 241.167 316.667 234.750 L 316.667 228.333 315.859 228.333 C 315.263 228.333,314.973 228.246,314.750 228.000 C 314.453 227.672,314.459 227.667,315.071 227.667 C 316.959 227.667,319.449 226.675,320.770 225.398 C 322.940 223.299,323.394 221.980,323.407 217.750 L 323.417 214.750 322.917 213.757 C 321.019 209.986,318.259 209.151,307.333 209.044 C 293.362 208.906,290.355 209.471,288.130 212.650 L 287.851 213.050 287.274 212.543 C 283.236 208.998,274.427 207.732,269.450 209.982 C 269.065 210.156,268.478 210.411,268.146 210.549 C 265.862 211.494,262.148 214.768,261.000 216.848 L 260.750 217.301 260.083 215.944 C 258.905 213.544,256.260 211.233,253.728 210.390 C 253.282 210.241,252.842 210.063,252.750 209.995 C 251.716 209.220,244.460 208.726,241.746 209.246 C 237.127 210.129,233.399 213.930,231.033 220.167 C 229.527 224.137,228.063 231.173,227.069 239.211 C 226.517 243.674,226.647 243.345,225.517 243.139 C 224.847 243.018,224.040 243.047,222.351 243.253 C 221.104 243.405,219.690 243.570,219.208 243.619 L 218.333 243.708 218.342 240.729 C 218.358 235.660,218.769 228.027,219.416 220.784 C 219.819 216.283,219.701 215.328,218.497 213.331 C 216.517 210.046,214.130 209.081,208.000 209.087 C 201.331 209.093,197.255 210.957,196.406 214.391 L 196.289 214.865 195.071 213.541 C 191.037 209.157,181.214 207.474,175.667 210.217 C 174.889 210.602,174.203 210.939,174.144 210.966 C 174.085 210.993,173.927 210.693,173.794 210.299 L 173.551 209.583 174.436 209.557 C 178.169 209.447,180.135 206.540,180.325 200.848 C 180.403 198.520,180.450 198.154,180.642 198.386 C 181.664 199.622,183.799 198.404,184.748 196.041 C 184.997 195.423,185.261 194.797,185.335 194.651 C 185.791 193.756,186.591 188.719,186.895 184.839 L 187.083 182.428 187.625 182.273 C 190.432 181.471,191.183 175.604,189.063 171.038 C 188.753 170.371,188.500 169.792,188.500 169.750 C 188.500 169.395,185.688 165.572,185.213 165.281 C 185.037 165.173,185.060 165.060,185.325 164.723 C 187.224 162.309,183.356 158.362,177.667 156.908 C 176.796 156.685,175.947 156.502,175.780 156.502 C 175.537 156.500,175.504 156.426,175.614 156.125 C 176.539 153.579,174.263 152.149,167.052 150.748 C 166.574 150.655,166.485 150.539,166.176 149.610 C 165.517 147.630,163.571 145.799,161.354 145.074 L 160.569 144.817 160.729 143.848 C 161.379 139.917,158.125 138.297,149.514 138.265 L 145.278 138.250 145.113 137.750 C 144.329 135.378,141.490 134.339,137.833 135.086 M141.685 137.090 C 142.877 137.510,143.333 138.068,143.333 139.103 C 143.333 140.506,143.149 140.460,148.380 140.368 C 157.018 140.217,159.643 141.235,158.525 144.303 C 157.870 146.097,157.973 146.301,159.750 146.738 C 162.423 147.395,164.667 149.632,164.667 151.641 C 164.667 152.315,165.056 152.516,167.006 152.848 C 170.559 153.453,173.469 154.410,173.717 155.056 C 173.816 155.315,173.537 155.781,172.903 156.415 C 172.063 157.255,172.576 158.054,174.074 158.242 C 178.598 158.807,183.124 161.091,183.740 163.119 C 183.833 163.427,183.774 163.507,183.384 163.598 C 181.813 163.963,181.751 164.739,183.183 166.110 C 188.318 171.026,190.255 180.153,186.222 180.425 C 185.131 180.498,185.067 180.644,184.938 183.385 C 184.547 191.651,182.504 198.892,181.410 195.884 C 180.866 194.387,180.285 194.176,179.332 195.129 C 178.477 195.984,178.335 196.641,178.334 199.765 C 178.332 206.080,176.219 208.677,172.302 207.179 C 168.312 205.654,166.579 198.242,167.838 188.083 C 168.488 182.833,168.549 182.017,168.560 178.333 C 168.578 172.438,167.413 166.534,165.864 164.672 C 165.217 163.895,165.086 164.547,165.625 165.857 C 167.523 170.469,167.775 177.805,166.326 186.292 C 165.486 191.210,165.279 197.185,165.844 200.164 L 166.049 201.245 164.410 202.794 C 163.508 203.646,162.616 204.371,162.427 204.406 C 159.107 205.022,156.308 206.261,153.981 208.143 L 152.555 209.297 147.569 209.380 C 140.154 209.504,138.498 210.050,136.428 213.056 L 135.802 213.965 133.693 214.079 C 123.165 214.650,111.317 211.147,103.984 205.296 C 103.766 205.122,103.700 204.565,103.622 202.250 C 103.517 199.159,103.031 195.926,102.195 192.750 C 99.809 183.684,99.434 181.847,99.186 178.019 C 99.024 175.531,99.184 172.669,99.588 170.812 C 100.073 168.580,100.091 168.291,99.740 168.359 C 98.926 168.516,98.000 173.303,98.000 177.356 C 98.000 181.506,98.451 184.672,99.922 190.833 C 102.808 202.930,102.084 209.771,97.703 211.797 C 93.924 213.545,91.894 211.054,91.014 203.585 C 90.799 201.763,90.336 200.775,89.462 200.273 C 88.753 199.867,87.974 200.102,87.864 200.756 C 87.580 202.427,87.294 202.667,86.626 201.792 C 85.094 199.781,83.472 194.577,82.589 188.833 C 82.281 186.827,82.149 186.653,80.981 186.704 C 79.507 186.768,78.657 185.342,78.535 182.604 C 78.378 179.063,79.711 175.441,82.404 172.095 C 83.643 170.555,83.526 169.667,82.083 169.667 C 81.333 169.667,81.300 169.214,81.971 168.155 C 83.208 166.205,86.608 164.211,90.333 163.250 C 92.116 162.790,92.405 162.016,91.167 161.020 C 89.642 159.795,91.306 158.662,97.192 156.917 C 98.855 156.424,98.920 156.367,99.070 155.250 C 99.381 152.938,100.483 151.443,102.622 150.429 C 103.334 150.092,104.104 149.724,104.333 149.611 C 104.927 149.318,104.931 148.809,104.345 147.638 C 103.469 145.884,103.925 144.861,105.997 143.931 C 107.937 143.061,113.327 142.171,116.704 142.164 C 118.523 142.161,118.750 141.990,118.750 140.631 C 118.750 137.408,123.904 136.890,128.478 139.653 C 130.487 140.867,131.681 140.806,133.541 139.396 C 136.379 137.243,139.564 136.341,141.685 137.090 M225.875 166.350 C 222.604 166.641,221.230 167.474,219.847 170.002 L 219.393 170.833 218.598 170.071 C 215.806 167.396,212.312 166.499,204.696 166.501 C 197.793 166.503,196.258 167.042,194.725 170.000 L 194.250 170.917 194.250 187.167 L 194.250 203.417 194.764 204.501 C 195.977 207.060,198.342 208.197,202.500 208.219 C 208.132 208.249,210.384 206.402,210.696 201.500 C 210.781 200.171,210.889 198.552,210.937 197.904 L 211.023 196.724 212.637 196.184 C 214.695 195.494,216.556 194.394,218.096 192.956 L 219.311 191.821 219.419 192.619 C 220.766 202.540,225.628 207.831,233.803 208.272 C 238.739 208.538,241.989 206.419,244.577 201.250 L 245.661 199.083 245.669 200.417 C 245.680 202.309,245.946 204.128,246.315 204.836 C 248.796 209.595,259.658 209.364,261.783 204.506 C 262.008 203.992,262.248 200.803,262.323 197.333 C 262.336 196.753,262.342 196.748,263.710 196.302 C 265.137 195.836,266.016 195.474,266.579 195.123 C 266.760 195.009,267.285 194.685,267.746 194.401 C 268.207 194.117,269.052 193.432,269.625 192.877 L 270.667 191.870 270.667 195.063 C 270.667 199.123,270.939 203.359,271.264 204.358 C 272.900 209.390,284.415 209.647,286.767 204.704 C 287.210 203.773,287.409 201.742,287.489 197.326 L 287.500 196.735 288.958 196.266 C 293.311 194.866,297.390 191.071,298.257 187.614 C 298.366 187.182,298.667 186.983,298.667 187.342 C 298.667 187.439,298.835 187.870,299.042 188.301 C 299.414 189.077,299.417 189.145,299.417 196.667 L 299.417 204.250 299.806 205.000 C 300.960 207.225,302.700 208.123,306.142 208.274 C 312.336 208.544,314.678 207.716,316.182 204.722 L 316.699 203.694 316.784 196.222 L 316.869 188.750 318.240 186.167 C 320.465 181.975,322.087 178.553,322.584 177.000 C 322.745 176.496,322.935 176.008,323.006 175.917 C 323.770 174.929,323.863 171.523,323.166 170.081 C 321.085 165.777,314.013 164.921,311.422 168.658 L 310.959 169.327 310.499 168.692 C 309.468 167.268,307.637 166.333,305.881 166.333 C 304.992 166.333,302.739 166.761,302.417 166.991 C 302.325 167.057,301.762 167.282,301.167 167.492 C 299.632 168.032,297.066 169.416,296.355 170.088 L 295.752 170.657 295.001 169.937 C 292.345 167.391,288.919 166.522,281.500 166.512 C 274.301 166.503,272.546 167.122,271.310 170.105 L 270.935 171.009 270.009 170.113 C 267.167 167.362,263.858 166.497,256.196 166.503 C 250.309 166.508,248.773 166.804,247.486 168.181 L 247.045 168.653 246.500 168.166 C 243.880 165.827,239.145 165.880,236.491 168.278 L 235.854 168.853 235.587 168.446 C 235.298 168.005,233.889 167.021,233.083 166.697 C 232.608 166.506,228.981 166.153,227.917 166.193 C 227.642 166.204,226.723 166.274,225.875 166.350 M231.998 170.306 C 233.500 171.023,233.475 170.714,233.140 184.418 C 232.890 194.645,233.115 198.511,234.015 199.478 C 236.552 202.201,238.317 191.962,238.331 174.439 L 238.333 171.794 238.966 171.162 C 240.425 169.702,242.931 169.743,244.333 171.248 L 244.750 171.695 244.738 177.139 C 244.694 197.902,240.282 206.886,231.417 204.266 C 227.956 203.243,225.354 200.592,224.093 196.804 C 223.093 193.800,223.118 194.141,223.047 182.579 L 222.982 171.909 223.366 171.345 C 223.999 170.414,224.457 170.183,226.000 170.016 C 228.000 169.798,231.266 169.956,231.998 170.306 M318.417 170.503 C 321.004 171.738,320.376 174.239,314.870 184.616 L 313.207 187.750 313.106 195.416 C 312.976 205.227,313.352 204.574,307.833 204.580 C 302.581 204.585,302.914 205.195,303.073 195.872 L 303.195 188.729 302.754 187.656 C 301.080 183.582,298.167 175.034,298.167 174.198 C 298.167 173.360,298.758 172.761,300.453 171.880 C 304.491 169.785,306.870 169.511,307.692 171.047 C 308.258 172.105,310.167 178.787,310.175 179.738 L 310.184 180.750 310.927 179.292 C 311.754 177.670,312.259 176.440,313.412 173.250 C 314.676 169.750,315.682 169.198,318.417 170.503 M211.500 170.630 C 217.372 172.041,219.988 176.812,218.823 183.989 C 217.998 189.076,213.929 192.849,208.800 193.285 C 207.763 193.373,207.676 193.412,207.589 193.815 C 207.441 194.508,207.002 200.462,207.001 201.808 C 206.999 204.177,203.609 205.366,199.964 204.278 C 197.718 203.608,197.805 204.364,197.868 185.939 C 197.922 170.332,197.864 171.191,198.899 170.629 C 199.975 170.045,209.068 170.045,211.500 170.630 M263.284 170.722 C 269.452 172.302,272.150 178.714,269.731 186.045 C 268.433 189.981,263.868 193.333,259.807 193.333 C 259.363 193.333,258.998 193.390,258.995 193.458 C 258.993 193.527,258.882 194.933,258.749 196.583 C 258.616 198.233,258.506 200.282,258.504 201.136 C 258.500 202.739,258.367 203.198,257.767 203.690 C 256.225 204.952,251.451 204.845,249.962 203.515 L 249.432 203.041 249.299 197.729 C 249.111 190.183,249.310 172.046,249.587 171.500 C 250.211 170.273,250.765 170.175,256.750 170.237 C 261.329 170.284,261.673 170.309,263.284 170.722 M288.461 170.725 C 292.980 171.882,295.378 174.988,295.624 180.000 C 295.987 187.417,291.893 192.726,285.384 193.279 L 284.185 193.381 284.093 194.232 C 283.861 196.399,283.667 199.506,283.667 201.070 C 283.667 203.021,283.490 203.410,282.336 203.998 C 280.331 205.022,276.192 204.686,274.986 203.402 L 274.583 202.973 274.442 196.362 C 274.364 192.725,274.364 185.645,274.442 180.628 L 274.583 171.506 275.089 171.000 C 275.830 170.259,276.531 170.181,281.917 170.237 C 286.503 170.284,286.837 170.309,288.461 170.725 M151.180 171.672 C 147.841 172.556,144.938 174.846,143.493 177.735 C 142.398 179.923,143.394 181.185,145.354 180.094 C 147.155 179.092,150.335 178.716,152.943 179.196 C 155.597 179.685,153.979 177.989,151.090 177.253 C 150.544 177.114,149.422 177.000,148.598 177.000 L 147.099 177.000 147.758 176.312 C 148.853 175.168,150.871 173.759,152.648 172.898 C 155.332 171.597,154.401 170.819,151.180 171.672 M115.450 172.074 C 110.649 173.787,108.997 182.250,112.684 186.249 C 116.496 190.385,122.452 186.836,122.928 180.145 C 123.314 174.719,119.518 170.623,115.450 172.074 M118.714 173.729 C 121.105 174.748,121.137 179.167,118.752 179.167 C 116.465 179.167,115.279 175.008,117.228 173.820 C 117.851 173.440,118.013 173.430,118.714 173.729 M209.398 175.663 C 208.914 175.859,208.372 176.585,208.168 177.311 C 207.630 179.229,207.573 185.333,208.094 185.333 C 208.229 185.333,208.283 185.436,208.227 185.583 C 208.114 185.879,208.527 185.920,209.011 185.661 C 210.452 184.890,211.893 177.763,210.910 176.264 C 210.714 175.965,209.955 175.457,209.784 175.511 C 209.765 175.516,209.592 175.585,209.398 175.663 M260.551 175.826 C 259.607 176.401,259.306 177.757,259.208 181.875 C 259.131 185.075,259.147 185.333,259.414 185.333 C 259.602 185.333,259.669 185.420,259.606 185.583 C 259.452 185.985,260.223 185.890,260.619 185.458 C 261.633 184.352,262.485 181.444,262.619 178.631 L 262.712 176.679 262.123 176.089 C 261.443 175.410,261.278 175.382,260.551 175.826 M285.734 175.816 C 284.712 176.439,284.342 178.223,284.337 182.542 C 284.334 184.996,284.366 185.333,284.601 185.333 C 284.771 185.333,284.834 185.425,284.773 185.583 C 284.705 185.761,284.788 185.833,285.060 185.833 C 286.325 185.833,287.697 182.039,287.731 178.446 L 287.750 176.475 287.206 175.987 C 286.566 175.415,286.420 175.398,285.734 175.816 M115.208 183.682 C 116.139 184.676,115.587 186.278,114.461 185.850 C 113.408 185.450,112.926 183.804,113.703 183.260 C 114.171 182.932,114.626 183.060,115.208 183.682 M132.333 187.350 C 130.635 187.540,129.719 187.811,129.147 188.292 C 127.629 189.570,129.931 192.324,132.879 192.756 L 133.674 192.872 133.568 193.478 C 132.910 197.226,128.089 197.958,127.156 194.451 C 126.830 193.227,126.288 192.879,125.670 193.497 C 124.603 194.564,126.594 197.521,128.851 198.221 C 128.998 198.267,129.249 198.705,129.408 199.194 C 131.667 206.152,138.834 205.820,140.030 198.702 C 140.206 197.653,140.297 197.442,140.630 197.316 C 142.587 196.572,144.156 192.875,142.819 192.159 C 142.231 191.844,141.805 192.290,141.564 193.472 C 140.894 196.758,136.757 197.107,135.346 193.997 C 134.847 192.897,134.889 192.774,135.907 192.352 C 138.069 191.456,139.619 189.079,138.769 187.960 C 138.185 187.191,135.786 186.963,132.333 187.350 M136.654 197.412 C 137.051 197.552,137.638 197.667,137.959 197.667 L 138.543 197.667 138.433 198.375 C 137.773 202.649,134.172 204.074,132.002 200.919 C 131.339 199.956,130.760 198.342,131.048 198.261 C 131.984 197.995,132.930 197.564,133.347 197.213 C 133.959 196.698,133.910 196.635,134.150 198.250 C 134.470 200.402,134.500 200.500,134.829 200.500 C 135.261 200.500,135.333 200.183,135.333 198.294 C 135.333 196.688,135.346 196.627,135.633 196.886 C 135.798 197.036,136.258 197.272,136.654 197.412 M166.881 204.164 C 166.953 204.440,166.888 204.500,166.512 204.500 C 165.877 204.500,165.785 204.343,166.215 203.995 C 166.632 203.656,166.756 203.688,166.881 204.164 M167.224 206.493 C 172.313 207.795,174.466 214.398,171.464 219.500 L 170.925 220.417 170.790 218.833 C 170.586 216.444,169.963 216.055,169.779 218.203 C 169.512 221.338,169.037 221.916,166.843 221.783 C 164.693 221.652,164.629 221.623,164.977 220.947 C 165.351 220.221,165.373 216.897,165.006 216.670 C 164.601 216.420,164.333 216.813,164.333 217.657 C 164.333 219.481,163.525 221.050,162.763 220.703 C 160.893 219.851,159.357 217.192,158.761 213.774 C 158.513 212.356,158.320 211.999,157.960 212.297 C 157.750 212.472,152.500 211.065,152.500 210.834 C 152.500 210.787,153.006 210.440,153.625 210.064 C 154.244 209.687,155.275 209.055,155.917 208.659 C 159.592 206.391,163.728 205.599,167.224 206.493 M113.683 212.855 C 119.072 214.916,125.380 216.000,131.995 216.000 L 135.167 216.000 135.167 217.083 C 135.167 217.679,135.148 218.171,135.125 218.177 C 134.434 218.352,129.067 218.751,129.022 218.631 C 128.287 216.658,124.724 216.199,123.588 217.932 L 123.346 218.302 121.798 217.967 C 117.088 216.948,112.836 214.909,110.821 212.705 C 109.497 211.256,109.464 211.078,110.619 211.608 C 111.149 211.852,112.528 212.413,113.683 212.855 M108.333 212.664 C 108.333 213.033,110.648 215.244,111.922 216.092 C 114.522 217.822,117.523 218.964,122.362 220.065 C 122.691 220.140,122.861 220.329,123.012 220.792 C 123.125 221.135,123.324 221.580,123.454 221.780 C 123.644 222.073,123.651 222.218,123.488 222.522 C 123.155 223.144,123.238 224.536,123.652 225.271 C 124.893 227.480,128.416 227.285,129.343 224.957 C 129.461 224.660,129.574 224.394,129.593 224.366 C 129.640 224.301,133.937 223.841,134.542 223.837 L 135.000 223.833 135.000 238.417 L 135.000 253.000 134.542 253.014 C 132.023 253.092,128.639 252.189,128.934 251.517 C 130.446 248.073,129.947 245.360,126.975 240.878 C 124.868 237.700,123.675 234.783,123.075 231.341 C 122.817 229.865,122.666 229.545,122.324 229.756 C 122.073 229.911,122.211 232.500,122.572 234.385 C 123.031 236.783,124.543 240.571,125.692 242.198 C 127.352 244.550,128.063 247.735,127.391 249.814 C 127.077 250.788,126.907 250.881,126.750 250.167 C 126.612 249.537,125.248 247.667,124.927 247.667 C 124.460 247.667,124.472 248.034,124.969 248.970 C 126.049 251.004,125.765 252.284,124.066 253.032 C 122.345 253.791,122.388 253.795,122.296 252.837 C 122.216 252.002,121.340 250.018,120.884 249.640 C 120.399 249.237,120.300 249.746,120.657 250.804 C 121.479 253.246,121.043 253.985,119.123 253.404 C 112.878 251.513,109.000 242.687,109.000 230.364 C 109.000 226.751,108.979 226.479,108.708 226.531 C 107.823 226.700,107.395 236.308,108.108 240.018 C 108.202 240.510,108.107 240.421,107.374 239.333 C 104.861 235.606,101.798 233.781,98.021 233.761 L 95.959 233.750 96.051 232.648 C 96.271 230.019,98.054 228.188,100.917 227.649 C 101.939 227.456,102.500 227.054,102.500 226.512 C 102.500 224.388,104.107 222.833,106.302 222.833 C 108.029 222.833,108.161 222.629,107.739 220.620 C 107.304 218.544,107.291 214.836,107.715 213.458 C 107.969 212.631,108.333 212.163,108.333 212.664 M184.583 213.839 C 190.019 214.455,192.440 216.349,193.321 220.674 C 194.280 225.381,194.947 238.869,194.805 250.679 L 194.750 255.275 194.290 255.970 C 192.452 258.745,183.662 258.729,181.599 255.947 C 181.277 255.512,181.246 255.218,181.196 252.095 L 181.143 248.713 180.030 248.607 C 177.561 248.374,176.348 248.460,176.259 248.875 C 176.123 249.513,175.823 252.165,175.684 253.967 C 175.478 256.639,174.476 257.667,172.077 257.667 C 168.384 257.667,167.222 256.302,167.400 252.173 C 167.954 239.294,170.588 223.773,172.725 220.790 C 173.038 220.354,173.466 219.529,173.676 218.957 C 175.210 214.785,178.657 213.168,184.583 213.839 M212.134 214.061 C 213.332 214.396,214.055 214.989,214.584 216.070 L 215.028 216.977 214.764 219.863 C 214.010 228.133,213.669 235.229,213.668 242.708 C 213.667 247.498,213.712 248.833,213.875 248.833 C 214.274 248.831,219.268 248.353,221.841 248.069 C 226.333 247.574,226.352 247.589,226.149 251.417 C 226.001 254.200,226.058 255.520,226.361 256.321 C 226.599 256.950,226.263 257.122,224.250 257.397 C 219.692 258.021,208.255 258.194,205.500 257.681 C 203.032 257.221,201.239 256.164,200.844 254.936 C 199.991 252.278,199.776 230.784,200.478 218.397 C 200.654 215.302,201.460 214.433,204.636 213.913 C 206.458 213.615,210.851 213.702,212.134 214.061 M247.917 213.839 C 251.838 214.281,254.550 215.655,255.707 217.785 C 257.033 220.229,257.684 226.061,257.446 233.381 C 257.289 238.201,257.466 242.559,257.920 245.083 C 258.086 246.007,258.161 247.701,258.163 250.592 L 258.167 254.768 257.727 255.649 C 256.839 257.432,255.473 257.917,251.333 257.917 C 247.831 257.917,245.968 257.344,244.932 255.947 C 244.610 255.512,244.579 255.221,244.532 252.095 L 244.481 248.713 243.366 248.608 C 240.708 248.357,239.703 248.450,239.600 248.958 C 239.395 249.971,239.000 253.455,239.000 254.249 C 239.000 257.743,234.006 259.057,231.509 256.221 C 230.622 255.213,230.586 254.916,230.812 250.491 C 231.563 235.832,234.214 222.695,237.392 217.885 C 239.785 214.263,242.483 213.226,247.917 213.839 M280.583 214.226 C 282.992 215.001,284.992 216.504,286.143 218.401 L 286.685 219.297 286.567 222.238 L 286.450 225.180 285.941 225.542 C 283.838 227.040,279.842 225.316,279.835 222.908 C 279.831 221.745,278.083 219.989,277.375 220.436 C 275.814 221.420,275.400 247.625,276.909 249.928 C 277.414 250.700,278.426 250.210,279.333 248.755 C 280.926 246.198,281.594 245.674,283.262 245.669 C 284.340 245.666,285.514 245.993,286.118 246.463 C 286.626 246.858,286.890 251.593,286.451 252.421 C 282.809 259.294,271.433 259.971,266.178 253.628 C 263.107 249.922,262.078 245.441,262.092 235.833 C 262.110 223.996,263.585 219.358,268.433 215.899 C 271.537 213.684,276.695 212.974,280.583 214.226 M314.290 213.926 C 316.546 214.261,317.668 214.685,318.346 215.457 L 318.879 216.064 318.781 217.990 C 318.534 222.840,317.872 223.130,306.958 223.159 L 304.167 223.167 304.167 226.458 L 304.167 229.750 306.747 229.691 C 310.903 229.595,311.986 230.611,311.996 234.617 C 312.007 238.838,310.813 239.968,306.549 239.774 L 304.167 239.665 304.167 244.441 L 304.167 249.217 308.458 249.119 C 310.819 249.066,313.463 248.929,314.334 248.816 C 317.398 248.417,318.019 249.130,318.334 253.417 C 318.541 256.235,318.094 256.814,315.250 257.414 C 312.131 258.072,297.234 258.214,295.083 257.606 C 291.490 256.590,291.425 256.441,291.171 248.667 C 290.762 236.154,290.799 228.455,291.313 218.476 C 291.548 213.926,292.108 213.743,305.979 213.691 C 311.162 213.672,312.908 213.721,314.290 213.926 M155.417 214.253 C 157.668 214.592,157.667 214.592,157.667 215.226 C 157.667 219.298,161.952 223.479,166.143 223.498 C 166.670 223.500,166.696 223.527,166.587 223.958 C 165.859 226.851,164.821 232.310,164.180 236.616 C 163.797 239.190,163.703 239.368,162.004 240.722 C 159.848 242.441,156.747 243.712,154.136 243.946 L 153.022 244.047 152.927 245.065 C 152.748 247.000,152.512 250.592,152.403 253.030 C 152.275 255.897,152.145 256.220,150.799 256.990 C 147.614 258.812,141.192 258.062,140.090 255.740 C 139.401 254.288,139.383 217.360,140.071 215.949 C 140.527 215.013,141.357 214.459,142.648 214.229 C 144.356 213.924,153.345 213.941,155.417 214.253 M127.179 218.821 C 127.447 219.088,127.667 219.448,127.667 219.621 C 127.667 220.429,127.912 220.454,132.039 220.057 C 135.478 219.727,135.176 219.623,135.032 221.085 L 134.917 222.246 132.083 222.530 C 130.525 222.686,129.087 222.818,128.887 222.823 C 128.373 222.838,128.000 223.273,128.000 223.858 C 128.000 224.189,127.835 224.524,127.513 224.846 C 126.109 226.250,124.061 224.420,125.167 222.750 C 125.620 222.065,125.585 221.726,125.000 221.141 C 124.259 220.400,124.263 219.486,125.011 218.792 C 125.698 218.155,126.525 218.166,127.179 218.821 M154.502 222.473 C 153.325 223.650,152.538 233.511,153.637 233.299 C 154.166 233.197,155.276 230.550,155.825 228.083 C 156.715 224.081,155.986 220.989,154.502 222.473 M180.522 224.042 C 179.910 225.953,178.963 230.315,178.324 234.167 C 178.058 235.771,177.803 237.290,177.758 237.542 L 177.675 238.000 179.421 238.000 L 181.167 238.000 181.167 230.250 C 181.167 225.987,181.133 222.500,181.091 222.500 C 181.050 222.500,180.793 223.194,180.522 224.042 M243.931 223.820 C 243.126 226.368,242.249 230.410,241.505 235.000 C 241.320 236.146,241.132 237.290,241.088 237.542 L 241.008 238.000 242.754 238.000 L 244.500 238.000 244.500 230.250 C 244.500 225.987,244.466 222.500,244.424 222.500 C 244.382 222.500,244.160 223.094,243.931 223.820 M286.166 235.976 C 286.167 241.048,286.149 241.362,285.875 241.245 C 285.377 241.034,281.954 240.951,281.292 241.134 L 280.667 241.306 280.668 237.278 C 280.668 235.063,280.715 232.650,280.772 231.917 L 280.876 230.583 283.521 230.583 L 286.166 230.583 286.166 235.976 M99.718 235.749 C 106.584 237.537,110.530 247.997,106.137 252.763 C 102.189 257.046,94.452 252.743,92.660 245.269 C 91.199 239.178,94.709 234.444,99.718 235.749 M96.883 238.084 C 96.348 238.458,96.097 239.367,96.332 240.078 C 96.898 241.795,99.201 242.027,99.647 240.412 C 100.115 238.716,98.238 237.135,96.883 238.084 M101.598 240.179 C 101.110 240.759,101.054 241.299,101.411 241.988 C 102.062 243.249,103.833 242.670,103.833 241.197 C 103.833 239.746,102.481 239.130,101.598 240.179 M94.886 242.168 C 93.543 242.709,94.223 244.833,95.739 244.833 C 96.592 244.833,97.000 244.461,97.000 243.684 C 97.000 242.516,95.929 241.748,94.886 242.168 M100.094 244.036 C 98.503 244.372,97.587 245.758,97.695 247.667 C 97.959 252.345,104.379 252.979,104.636 248.352 C 104.782 245.725,102.476 243.533,100.094 244.036 M163.094 246.625 C 162.990 247.579,162.674 252.123,162.669 252.741 C 162.660 253.965,160.984 251.124,160.574 249.190 C 160.150 247.190,160.154 247.179,161.625 246.398 C 163.283 245.517,163.217 245.507,163.094 246.625 M111.975 250.220 C 112.704 251.271,112.282 251.618,109.898 251.926 L 109.046 252.037 109.437 250.871 C 109.652 250.230,109.879 249.053,109.940 248.256 L 110.051 246.806 110.735 248.111 C 111.111 248.829,111.669 249.778,111.975 250.220 M158.569 248.819 C 158.630 249.362,158.816 250.295,158.982 250.894 L 159.283 251.982 158.850 251.914 C 158.612 251.878,158.135 251.803,157.792 251.749 L 157.167 251.652 157.167 250.364 C 157.167 248.179,158.349 246.877,158.569 248.819 " stroke="none" fill="#040474" fill-rule="evenodd"></path><path id="path1" d="M139.083 136.943 C 137.398 137.189,135.019 138.256,133.610 139.397 C 132.086 140.631,130.710 140.903,129.412 140.226 C 129.048 140.037,128.150 139.562,127.417 139.172 C 124.445 137.590,120.247 139.541,120.997 142.155 L 121.135 142.638 119.526 142.746 C 108.471 143.492,104.710 145.447,106.585 149.475 C 106.813 149.965,107.000 150.390,107.000 150.420 C 107.000 150.449,106.636 150.594,106.191 150.742 C 103.655 151.584,101.842 153.602,101.432 156.039 L 101.232 157.226 99.241 157.832 C 93.421 159.605,91.677 161.101,93.334 162.898 L 94.001 163.622 92.292 164.163 C 85.985 166.163,81.040 171.481,84.868 172.146 L 85.466 172.250 84.397 173.667 C 81.414 177.619,80.090 182.461,81.016 186.035 C 81.127 186.466,81.248 186.625,81.414 186.561 C 81.849 186.394,82.440 187.202,82.563 188.133 C 82.626 188.610,82.737 189.000,82.809 189.000 C 83.682 189.000,84.887 190.942,85.250 192.931 C 86.004 197.074,87.833 202.676,87.833 200.845 C 87.833 200.322,88.308 199.989,89.059 199.984 C 89.439 199.982,90.019 199.977,90.348 199.972 C 92.049 199.948,92.464 200.696,92.769 204.339 C 93.082 208.070,94.195 212.000,94.939 212.000 C 95.355 212.000,96.456 210.841,96.799 210.040 C 98.210 206.753,97.503 198.115,95.254 191.150 C 90.442 176.247,92.099 167.587,100.110 165.769 L 101.136 165.537 100.681 166.310 C 100.028 167.420,99.793 168.167,100.012 168.431 C 100.141 168.586,100.096 168.984,99.852 169.864 C 98.576 174.462,99.118 181.565,101.332 189.270 C 101.697 190.542,102.203 192.408,102.456 193.417 L 102.917 195.250 103.919 195.922 C 108.943 199.290,117.318 196.974,120.509 191.334 C 124.238 184.744,128.789 181.914,135.167 182.217 C 139.953 182.445,143.854 184.632,146.840 188.762 C 149.874 192.957,155.148 195.420,159.271 194.568 C 160.823 194.247,164.924 186.299,166.608 180.350 L 167.202 178.250 167.117 174.917 C 167.009 170.668,166.572 168.312,165.314 165.211 C 165.073 164.617,165.252 164.249,165.698 164.420 C 166.309 164.654,167.663 168.615,168.261 171.917 C 168.842 175.123,168.753 182.107,168.076 186.511 C 167.943 187.376,167.745 189.816,167.636 191.933 L 167.438 195.782 167.883 196.542 C 171.290 202.354,174.348 199.716,176.336 189.250 C 176.632 187.692,176.902 186.316,176.937 186.193 C 176.979 186.047,177.295 186.234,177.854 186.737 C 180.893 189.469,182.036 186.195,181.415 176.543 L 181.338 175.335 182.002 174.895 C 184.611 173.169,183.282 170.821,178.221 168.211 L 176.358 167.251 176.932 166.777 C 179.361 164.775,176.450 162.055,169.272 159.619 C 169.193 159.593,169.287 159.275,169.481 158.913 C 170.658 156.716,168.707 155.197,163.348 154.140 L 161.572 153.790 161.559 152.912 C 161.526 150.595,159.533 148.870,155.511 147.679 L 154.003 147.232 154.663 146.587 C 157.002 144.303,155.697 142.535,150.417 140.835 C 148.767 140.305,146.051 140.203,144.383 140.609 C 143.736 140.767,143.115 139.968,143.252 139.155 C 143.502 137.677,141.463 136.595,139.083 136.943 M154.072 171.329 C 154.833 171.618,154.566 171.963,152.958 172.771 C 150.730 173.889,147.500 176.217,147.500 176.704 C 147.500 176.775,147.969 176.835,148.542 176.836 C 151.289 176.844,154.992 178.437,154.148 179.248 C 153.955 179.433,153.736 179.431,152.833 179.239 C 150.532 178.747,148.156 178.990,145.927 179.945 C 142.958 181.217,142.033 180.023,143.767 177.156 C 145.803 173.788,149.018 171.759,153.083 171.276 C 153.358 171.243,153.597 171.205,153.614 171.192 C 153.631 171.178,153.837 171.240,154.072 171.329 M119.288 172.227 C 123.687 174.456,124.327 182.361,120.426 186.263 C 116.239 190.449,110.583 187.081,110.609 180.417 C 110.633 174.434,115.179 170.145,119.288 172.227 M160.708 207.666 C 157.690 208.092,152.022 210.415,152.811 210.903 C 153.359 211.241,157.544 212.316,157.978 212.229 C 158.532 212.119,158.521 212.098,158.836 213.865 C 159.125 215.493,160.759 217.156,163.076 218.181 C 164.132 218.648,164.333 218.538,164.333 217.500 C 164.333 216.871,164.403 216.629,164.607 216.551 C 165.033 216.388,165.333 216.962,165.333 217.939 C 165.333 219.028,165.385 219.058,167.240 219.063 C 169.510 219.069,169.667 219.002,169.667 218.017 C 169.667 217.160,169.960 216.719,170.415 216.893 C 170.555 216.947,170.668 217.195,170.669 217.453 C 170.674 218.275,170.858 218.361,171.630 217.901 C 172.514 217.374,172.583 217.119,172.583 214.417 C 172.583 211.921,172.402 211.442,170.892 209.952 C 169.058 208.141,164.534 207.126,160.708 207.666 M109.485 215.201 C 109.078 216.666,109.351 221.215,109.937 222.744 C 110.005 222.921,109.784 222.973,108.939 222.979 C 106.631 222.997,104.932 224.536,104.572 226.934 C 104.470 227.613,104.459 227.623,103.526 227.827 C 100.559 228.477,98.674 230.250,98.095 232.938 L 97.982 233.459 98.950 233.580 C 102.040 233.966,105.574 236.331,107.373 239.217 C 108.028 240.266,108.044 240.218,107.816 237.897 C 107.540 235.091,107.776 229.363,108.269 226.949 C 108.339 226.604,108.449 226.494,108.686 226.532 C 108.992 226.581,109.010 226.791,109.065 231.083 C 109.135 236.480,109.487 239.040,110.660 242.701 C 111.562 245.518,114.634 247.667,117.759 247.667 C 122.243 247.667,125.004 242.359,123.248 237.112 C 122.208 234.003,121.779 229.586,122.528 229.697 C 122.849 229.744,122.922 229.938,123.170 231.417 C 123.732 234.765,124.121 235.602,126.687 239.000 C 128.683 241.642,130.598 243.538,131.891 244.153 C 132.699 244.537,134.675 245.080,134.769 244.944 C 134.779 244.929,134.835 240.170,134.893 234.367 L 135.000 223.818 134.458 223.904 C 134.160 223.951,132.981 224.073,131.837 224.175 C 129.621 224.372,129.500 224.401,129.500 224.735 C 129.500 225.192,128.458 226.369,127.781 226.676 C 125.217 227.840,122.316 225.191,123.377 222.653 C 123.602 222.115,123.596 222.033,123.317 221.687 C 123.148 221.480,122.964 221.059,122.906 220.754 C 122.816 220.272,122.721 220.184,122.193 220.092 C 118.179 219.391,113.370 217.382,110.717 215.297 L 109.684 214.485 109.485 215.201 " stroke="none" fill="#fba304" fill-rule="evenodd"></path><path id="path2" d="M150.864 140.994 C 155.804 142.656,156.954 144.350,154.663 146.587 L 154.003 147.232 155.511 147.679 C 159.533 148.870,161.526 150.595,161.559 152.912 L 161.572 153.790 163.348 154.140 C 168.707 155.197,170.658 156.716,169.481 158.913 C 169.287 159.275,169.193 159.593,169.272 159.619 C 176.450 162.055,179.361 164.775,176.932 166.777 L 176.358 167.251 178.221 168.211 C 183.282 170.821,184.611 173.169,182.002 174.895 L 181.338 175.335 181.415 176.543 C 182.036 186.195,180.893 189.469,177.854 186.737 C 177.295 186.234,176.979 186.047,176.937 186.193 C 176.902 186.316,176.632 187.692,176.336 189.250 C 174.354 199.685,171.524 202.211,167.983 196.708 L 167.474 195.917 167.581 197.417 C 168.055 204.041,170.332 207.526,174.202 207.550 C 176.995 207.567,178.332 205.047,178.334 199.765 C 178.335 196.641,178.477 195.984,179.332 195.129 C 180.285 194.176,180.866 194.387,181.410 195.884 C 182.504 198.892,184.547 191.651,184.938 183.385 C 185.067 180.644,185.131 180.498,186.222 180.425 C 190.255 180.153,188.318 171.026,183.183 166.110 C 181.751 164.739,181.813 163.963,183.384 163.598 C 183.774 163.507,183.833 163.427,183.740 163.119 C 183.124 161.091,178.598 158.807,174.074 158.242 C 172.576 158.054,172.063 157.255,172.903 156.415 C 173.537 155.781,173.816 155.315,173.717 155.056 C 173.469 154.410,170.559 153.453,167.006 152.848 C 165.056 152.516,164.667 152.315,164.667 151.641 C 164.667 149.632,162.423 147.395,159.750 146.738 C 157.973 146.301,157.870 146.097,158.525 144.303 C 159.499 141.629,157.078 140.329,151.135 140.336 L 148.917 140.338 150.864 140.994 M99.869 165.836 C 92.023 167.892,90.479 176.361,95.254 191.150 C 98.295 200.569,98.308 209.958,95.281 211.835 L 94.813 212.126 95.415 212.239 C 96.202 212.386,97.527 211.998,98.549 211.322 C 102.168 208.924,102.618 202.195,99.918 190.833 C 98.447 184.642,98.000 181.499,98.000 177.356 C 98.000 173.611,98.821 169.006,99.598 168.398 C 99.728 168.296,99.923 167.958,100.031 167.648 C 100.138 167.337,100.436 166.727,100.692 166.292 C 100.948 165.856,101.141 165.504,101.121 165.509 C 101.100 165.514,100.537 165.661,99.869 165.836 M116.708 171.786 C 116.960 171.824,117.373 171.824,117.625 171.786 C 117.877 171.748,117.671 171.717,117.167 171.717 C 116.662 171.717,116.456 171.748,116.708 171.786 M167.232 175.917 C 167.233 177.200,167.259 177.703,167.291 177.034 C 167.322 176.366,167.322 175.316,167.290 174.701 C 167.258 174.086,167.232 174.633,167.232 175.917 M168.542 175.250 C 168.544 175.617,168.578 175.747,168.618 175.540 C 168.658 175.332,168.656 175.032,168.615 174.873 C 168.573 174.714,168.540 174.883,168.542 175.250 M99.039 175.833 C 99.039 176.154,99.073 176.285,99.115 176.125 C 99.157 175.965,99.157 175.702,99.115 175.542 C 99.073 175.381,99.039 175.512,99.039 175.833 M147.224 176.875 C 147.182 176.944,147.770 176.989,148.532 176.975 C 149.936 176.950,149.811 176.884,148.192 176.798 C 147.702 176.771,147.267 176.806,147.224 176.875 M166.673 180.125 C 165.546 184.477,162.548 190.870,160.307 193.700 C 159.675 194.497,159.695 194.517,160.833 194.228 C 162.258 193.865,163.762 193.054,164.756 192.111 L 165.664 191.250 165.905 189.333 C 166.037 188.279,166.332 186.178,166.560 184.663 C 166.975 181.907,167.284 178.667,167.131 178.667 C 167.087 178.667,166.881 179.323,166.673 180.125 M110.548 180.417 C 110.549 180.875,110.581 181.043,110.620 180.789 C 110.658 180.536,110.657 180.161,110.617 179.956 C 110.578 179.751,110.546 179.958,110.548 180.417 M168.545 181.167 C 168.545 181.579,168.578 181.748,168.618 181.542 C 168.657 181.335,168.657 180.998,168.618 180.792 C 168.578 180.585,168.545 180.754,168.545 181.167 M120.324 186.292 L 119.750 186.917 120.375 186.342 C 120.957 185.808,121.077 185.667,120.949 185.667 C 120.922 185.667,120.640 185.948,120.324 186.292 M112.333 186.052 C 112.333 186.081,112.577 186.325,112.875 186.594 L 113.417 187.083 112.927 186.542 C 112.471 186.037,112.333 185.923,112.333 186.052 M116.044 188.120 C 116.297 188.158,116.672 188.157,116.877 188.117 C 117.082 188.078,116.875 188.046,116.417 188.048 C 115.958 188.049,115.791 188.081,116.044 188.120 M167.545 192.000 C 167.545 192.412,167.578 192.581,167.618 192.375 C 167.657 192.169,167.657 191.831,167.618 191.625 C 167.578 191.419,167.545 191.588,167.545 192.000 M135.333 198.294 C 135.333 200.183,135.261 200.500,134.829 200.500 C 134.500 200.500,134.470 200.402,134.150 198.250 C 133.910 196.635,133.959 196.698,133.347 197.213 C 132.930 197.564,131.984 197.995,131.048 198.261 C 130.760 198.342,131.339 199.956,132.002 200.919 C 134.172 204.074,137.773 202.649,138.433 198.375 L 138.543 197.667 137.959 197.667 C 137.256 197.667,136.047 197.261,135.633 196.886 C 135.346 196.627,135.333 196.688,135.333 198.294 M112.667 212.648 C 112.667 213.843,118.559 217.278,121.798 217.970 L 123.346 218.302 123.588 217.932 C 124.724 216.199,128.287 216.658,129.022 218.631 C 129.067 218.751,134.434 218.352,135.125 218.177 C 135.148 218.171,135.167 217.679,135.167 217.083 L 135.167 216.000 131.995 216.000 C 125.691 216.000,119.484 214.984,114.292 213.103 C 113.398 212.779,112.667 212.575,112.667 212.648 M172.720 214.500 C 172.720 215.096,172.750 215.340,172.787 215.042 C 172.824 214.744,172.824 214.256,172.787 213.958 C 172.750 213.660,172.720 213.904,172.720 214.500 M159.000 215.024 C 159.000 215.897,160.226 218.400,161.125 219.361 C 162.658 221.000,163.313 221.145,163.822 219.960 C 164.289 218.872,164.388 218.323,164.098 218.434 C 163.500 218.664,160.697 216.922,159.598 215.639 C 159.269 215.254,159.000 214.978,159.000 215.024 M169.714 217.917 C 169.716 218.375,169.748 218.543,169.786 218.289 C 169.825 218.036,169.824 217.661,169.784 217.456 C 169.744 217.251,169.713 217.458,169.714 217.917 M171.589 217.924 C 171.092 218.224,170.893 218.272,170.782 218.119 C 170.685 217.986,170.669 218.021,170.734 218.222 C 170.789 218.390,170.836 218.952,170.839 219.472 C 170.845 220.602,171.031 220.463,171.872 218.700 C 172.465 217.455,172.447 217.406,171.589 217.924 M165.276 219.706 C 165.223 220.155,165.072 220.738,164.941 221.001 C 164.635 221.614,164.732 221.654,166.843 221.783 C 168.715 221.897,168.984 221.739,169.421 220.267 C 169.754 219.146,169.742 218.790,169.375 218.893 C 168.680 219.090,167.016 219.164,166.228 219.032 L 165.373 218.889 165.276 219.706 M133.708 223.948 C 133.869 223.990,134.131 223.990,134.292 223.948 C 134.452 223.906,134.321 223.872,134.000 223.872 C 133.679 223.872,133.548 223.906,133.708 223.948 M126.044 226.953 C 126.297 226.991,126.672 226.990,126.877 226.951 C 127.082 226.911,126.875 226.880,126.417 226.881 C 125.958 226.882,125.791 226.915,126.044 226.953 M134.874 237.871 L 134.833 244.992 134.292 244.900 C 132.265 244.558,131.101 243.916,129.414 242.208 C 128.097 240.875,125.547 237.626,124.747 236.261 C 124.497 235.834,124.256 235.521,124.212 235.566 C 124.048 235.729,125.821 239.137,126.975 240.878 C 129.947 245.360,130.446 248.073,128.934 251.517 C 128.631 252.207,134.312 253.576,134.927 252.962 C 134.969 252.920,134.983 247.906,134.958 241.818 C 134.925 233.571,134.904 232.565,134.874 237.871 M98.208 233.615 C 98.369 233.657,98.631 233.657,98.792 233.615 C 98.952 233.573,98.821 233.539,98.500 233.539 C 98.179 233.539,98.048 233.573,98.208 233.615 M123.837 239.932 C 123.814 247.357,117.402 250.120,111.974 245.043 L 111.146 244.268 111.488 245.137 C 113.177 249.421,115.975 252.450,119.123 253.404 C 121.043 253.985,121.479 253.246,120.657 250.804 C 120.300 249.746,120.399 249.237,120.884 249.640 C 121.340 250.018,122.216 252.002,122.296 252.837 C 122.388 253.795,122.345 253.791,124.066 253.032 C 125.765 252.284,126.049 251.004,124.969 248.970 C 124.472 248.034,124.460 247.667,124.927 247.667 C 125.248 247.667,126.612 249.537,126.750 250.167 C 126.907 250.881,127.077 250.788,127.391 249.814 C 128.063 247.735,127.353 244.555,125.692 242.198 C 125.518 241.951,125.031 241.075,124.609 240.250 L 123.841 238.750 123.837 239.932 M109.940 248.256 C 109.879 249.053,109.652 250.230,109.437 250.871 L 109.046 252.037 109.898 251.926 C 112.282 251.618,112.704 251.271,111.975 250.220 C 111.669 249.778,111.111 248.829,110.735 248.111 L 110.051 246.806 109.940 248.256 M157.589 248.455 C 157.227 248.988,157.167 249.261,157.167 250.364 L 157.167 251.652 157.792 251.749 C 158.135 251.803,158.612 251.878,158.850 251.914 L 159.283 251.982 158.982 250.894 C 158.816 250.295,158.630 249.362,158.569 248.819 C 158.436 247.649,158.198 247.560,157.589 248.455 " stroke="none" fill="#b26929" fill-rule="evenodd"></path><path id="path3" d="M144.938 137.277 C 145.337 138.069,145.361 138.085,146.256 138.169 C 147.889 138.322,146.828 137.048,144.925 136.570 L 144.531 136.472 144.938 137.277 M120.686 138.239 C 119.369 138.670,118.786 139.411,118.906 140.500 C 119.070 141.985,118.910 142.103,116.546 142.239 C 106.343 142.823,102.869 144.438,104.524 147.828 C 105.221 149.257,105.077 149.536,103.275 150.240 C 100.922 151.159,99.462 152.851,99.236 154.924 C 99.073 156.412,98.933 156.549,97.055 157.068 C 94.086 157.887,91.477 159.030,90.754 159.828 L 90.426 160.191 91.213 160.925 C 92.636 162.250,92.311 162.761,89.504 163.611 C 85.726 164.755,82.523 166.870,81.746 168.733 C 81.440 169.467,81.568 169.660,82.363 169.664 C 83.411 169.670,83.693 170.926,82.832 171.752 C 82.121 172.432,80.628 174.724,80.016 176.074 C 77.936 180.662,78.330 186.667,80.711 186.667 L 81.123 186.667 80.897 185.708 C 80.041 182.069,81.690 176.823,84.931 172.875 L 85.376 172.334 84.850 172.228 C 83.117 171.882,83.426 169.683,85.470 167.812 C 87.206 166.222,89.187 165.148,92.167 164.181 L 93.917 163.612 93.292 162.966 C 91.498 161.111,93.449 159.514,99.875 157.577 C 101.317 157.142,101.333 157.131,101.333 156.599 C 101.333 154.369,102.945 152.238,105.589 150.969 L 106.972 150.305 106.486 149.277 C 104.669 145.437,108.612 143.439,119.392 142.740 L 121.035 142.633 120.934 142.127 C 120.608 140.499,122.733 138.500,124.790 138.500 C 125.113 138.500,125.183 138.450,125.050 138.316 C 124.750 138.017,121.537 137.960,120.686 138.239 M225.340 170.190 C 224.172 170.383,223.714 170.694,223.323 171.555 C 222.955 172.366,222.835 188.854,223.173 192.154 C 223.848 198.727,226.865 203.022,231.685 204.271 C 238.817 206.119,242.695 200.895,244.263 187.330 C 244.679 183.723,244.799 171.976,244.424 171.405 C 243.684 170.275,241.426 169.852,239.917 170.561 C 238.331 171.306,238.432 170.842,238.306 178.000 C 238.041 193.076,236.916 200.000,234.730 200.000 C 232.978 200.000,232.775 196.674,233.271 176.167 L 233.378 171.750 232.727 171.021 C 231.850 170.040,228.511 169.664,225.340 170.190 M304.333 170.348 C 301.138 171.185,298.237 173.077,298.275 174.300 C 298.298 175.059,300.741 182.431,302.206 186.167 L 303.285 188.917 303.120 195.971 C 302.906 205.081,302.644 204.596,307.760 204.565 C 311.078 204.545,311.689 204.426,312.431 203.652 L 312.917 203.145 313.000 195.448 L 313.083 187.750 314.316 185.500 C 317.680 179.358,320.116 173.713,319.948 172.452 C 319.705 170.639,316.560 169.306,315.010 170.360 C 314.394 170.779,314.327 170.921,312.902 174.825 C 312.452 176.057,311.658 177.932,311.138 178.991 L 310.193 180.917 310.180 179.885 C 310.162 178.465,308.009 171.503,307.361 170.769 C 306.674 169.990,306.036 169.902,304.333 170.348 M200.358 170.333 C 199.221 170.495,198.652 170.780,198.253 171.389 C 197.605 172.377,197.760 202.604,198.417 203.337 C 199.615 204.677,203.581 204.977,205.802 203.896 C 206.886 203.369,206.999 203.108,207.004 201.114 C 207.006 200.272,207.116 198.233,207.249 196.583 C 207.382 194.933,207.493 193.536,207.495 193.478 C 207.498 193.420,207.995 193.319,208.599 193.254 C 213.595 192.719,217.480 189.507,218.583 184.997 C 220.059 178.967,217.878 172.922,213.646 171.309 C 211.351 170.434,203.640 169.868,200.358 170.333 M251.833 170.330 C 250.500 170.503,250.218 170.626,249.796 171.218 L 249.417 171.750 249.417 187.250 C 249.417 204.623,249.311 203.279,250.728 203.928 C 253.786 205.328,258.333 204.394,258.334 202.367 C 258.334 201.450,258.786 195.066,258.921 194.063 L 259.014 193.376 260.403 193.197 C 267.027 192.342,271.034 186.974,270.419 179.778 C 270.005 174.924,267.603 171.832,263.469 170.831 C 261.187 170.278,254.455 169.988,251.833 170.330 M276.858 170.346 C 275.592 170.510,275.055 170.828,274.730 171.607 C 274.385 172.432,274.457 202.529,274.806 203.141 C 275.606 204.545,279.901 205.014,282.224 203.950 C 283.410 203.407,283.435 203.343,283.570 200.500 C 283.687 198.029,283.926 195.057,284.094 193.982 L 284.188 193.381 285.635 193.178 C 291.412 192.370,294.940 188.605,295.486 182.667 C 296.072 176.297,293.601 172.034,288.625 170.828 C 286.293 170.264,279.607 169.990,276.858 170.346 M116.993 174.007 C 115.864 175.136,116.269 177.814,117.716 178.792 C 119.784 180.190,121.361 177.366,119.902 174.876 C 119.216 173.706,117.736 173.264,116.993 174.007 M210.735 176.013 C 212.253 177.816,210.409 185.833,208.476 185.833 C 208.110 185.833,208.033 185.774,208.117 185.556 C 208.183 185.384,208.157 185.320,208.049 185.387 C 207.413 185.779,207.582 179.011,208.259 176.974 C 208.746 175.506,209.924 175.049,210.735 176.013 M262.169 176.002 C 263.769 177.715,261.834 185.833,259.826 185.833 C 259.579 185.833,259.494 185.757,259.557 185.592 C 259.617 185.436,259.570 185.381,259.425 185.436 C 258.935 185.625,259.058 178.924,259.576 177.221 C 260.063 175.622,261.279 175.050,262.169 176.002 M287.246 175.898 C 288.863 177.514,287.044 185.833,285.073 185.833 C 284.735 185.833,284.655 185.770,284.734 185.565 C 284.804 185.381,284.765 185.324,284.609 185.384 C 284.047 185.600,284.156 179.209,284.748 177.221 C 285.200 175.706,286.412 175.064,287.246 175.898 M131.908 182.399 C 127.061 183.327,123.804 185.702,121.244 190.177 C 117.274 197.117,108.857 199.767,103.579 195.738 L 102.890 195.212 103.124 196.565 C 103.253 197.308,103.447 198.804,103.556 199.888 L 103.753 201.859 105.501 202.874 C 123.633 213.402,147.587 209.995,159.106 195.250 L 159.627 194.583 157.522 194.569 C 153.060 194.540,149.724 192.712,146.705 188.642 C 143.034 183.694,137.450 181.338,131.908 182.399 M138.166 187.459 C 140.076 188.413,138.835 191.133,135.898 192.432 C 134.999 192.830,134.975 192.857,135.209 193.214 C 136.512 195.203,140.865 194.989,141.583 192.901 C 141.846 192.138,141.987 192.000,142.504 192.000 C 144.336 192.000,143.036 197.139,140.854 198.523 C 140.230 198.919,140.058 199.145,139.830 199.874 C 138.109 205.375,132.332 205.876,129.927 200.733 C 129.548 199.923,129.340 199.676,128.903 199.518 C 126.971 198.819,124.803 195.046,125.480 193.560 C 125.777 192.909,126.656 193.062,127.040 193.830 C 127.934 195.623,131.286 195.716,132.958 193.994 C 133.654 193.278,133.676 192.833,133.015 192.833 C 130.317 192.833,127.490 189.450,129.118 188.169 C 130.271 187.262,136.755 186.753,138.166 187.459 M82.758 189.284 C 82.792 189.449,82.979 190.446,83.171 191.500 C 84.042 196.267,86.327 202.333,87.252 202.333 C 87.647 202.333,87.656 201.551,87.272 200.593 C 86.687 199.132,85.602 195.084,85.245 193.031 C 84.995 191.598,84.846 191.170,84.348 190.457 C 83.684 189.507,82.642 188.739,82.758 189.284 M89.667 200.138 C 89.667 200.213,89.852 200.450,90.079 200.663 C 90.709 201.255,90.978 202.199,91.243 204.750 C 91.589 208.074,92.398 210.313,93.616 211.317 C 94.579 212.111,94.745 211.979,94.183 210.866 C 93.325 209.166,92.967 207.511,92.669 203.863 C 92.469 201.419,92.166 200.552,91.396 200.231 C 90.793 199.978,89.667 199.918,89.667 200.138 M162.500 206.275 C 160.578 206.567,158.366 207.353,156.450 208.424 C 155.431 208.993,155.519 209.088,156.662 208.653 C 162.270 206.522,169.252 207.489,171.688 210.734 C 172.327 211.585,172.210 211.022,171.479 209.725 C 169.997 207.098,166.339 205.693,162.500 206.275 M107.734 213.789 C 107.261 215.469,107.303 218.409,107.829 220.536 C 108.329 222.557,108.195 222.833,106.715 222.833 C 104.381 222.833,103.234 223.717,102.751 225.886 C 102.429 227.337,102.267 227.493,100.750 227.823 C 97.954 228.430,96.379 230.067,96.202 232.551 L 96.118 233.718 96.767 233.611 C 97.125 233.552,97.541 233.503,97.694 233.502 C 97.885 233.501,98.005 233.300,98.080 232.851 C 98.481 230.479,100.255 228.716,103.011 227.953 C 104.162 227.634,104.356 227.526,104.434 227.167 C 105.001 224.523,106.431 223.103,108.741 222.887 C 109.342 222.831,109.833 222.740,109.833 222.684 C 109.833 222.629,109.726 222.058,109.594 221.417 C 109.123 219.117,109.119 215.993,109.586 214.614 C 109.622 214.505,109.292 214.021,108.852 213.539 L 108.051 212.660 107.734 213.789 M179.667 213.856 C 177.184 214.262,174.796 216.267,173.788 218.790 C 173.560 219.363,173.069 220.338,172.697 220.957 C 170.567 224.505,168.102 238.811,167.504 251.091 C 167.245 256.401,168.081 257.583,172.096 257.583 C 174.572 257.583,175.358 256.702,175.660 253.583 C 175.767 252.483,175.944 250.871,176.054 250.000 L 176.253 248.417 178.418 248.470 C 179.609 248.499,180.708 248.559,180.860 248.602 C 181.103 248.670,181.144 249.076,181.193 251.965 C 181.262 255.933,181.327 256.111,183.008 256.958 C 186.541 258.736,192.430 258.222,194.146 255.985 L 194.709 255.252 194.615 244.001 C 194.522 232.955,194.429 230.485,193.912 225.358 C 193.241 218.719,192.420 216.765,189.671 215.269 C 187.491 214.082,182.548 213.384,179.667 213.856 M205.583 213.837 C 203.015 214.112,201.539 214.807,200.894 216.046 C 199.749 218.248,199.921 253.086,201.089 255.344 C 202.423 257.923,211.658 258.765,223.655 257.400 C 226.278 257.102,226.600 256.986,226.294 256.451 C 226.141 256.184,226.083 255.032,226.083 252.250 L 226.083 248.417 225.452 248.108 C 224.849 247.814,224.721 247.812,222.536 248.065 C 219.972 248.362,214.783 248.833,214.083 248.833 L 213.625 248.833 213.718 239.875 C 213.769 234.948,213.890 229.829,213.987 228.500 C 214.186 225.780,214.612 220.785,214.823 218.704 C 215.235 214.624,212.363 213.111,205.583 213.837 M243.039 213.852 C 237.211 214.822,233.816 222.751,231.768 240.167 C 230.165 253.801,230.357 256.356,233.049 257.274 C 236.672 258.508,238.647 257.228,239.001 253.417 C 239.111 252.225,239.288 250.612,239.393 249.833 L 239.583 248.417 241.667 248.467 C 242.813 248.495,243.956 248.557,244.208 248.605 L 244.667 248.693 244.667 252.055 C 244.668 256.068,244.705 256.175,246.362 256.977 C 249.889 258.685,255.686 258.224,257.407 256.099 L 257.917 255.470 257.966 250.825 C 258.006 247.028,257.961 245.836,257.721 244.298 C 257.471 242.699,257.425 241.179,257.413 234.167 C 257.387 218.668,256.448 215.977,250.498 214.345 C 248.499 213.797,244.826 213.554,243.039 213.852 M272.917 213.931 C 265.631 215.558,262.550 221.096,262.168 233.248 C 261.874 242.571,262.616 247.606,264.877 251.641 C 269.260 259.462,281.150 260.224,285.977 252.994 L 286.642 252.000 286.555 249.458 C 286.454 246.508,286.391 246.387,284.715 245.899 C 282.615 245.289,281.134 245.892,280.010 247.816 C 278.327 250.697,277.137 251.203,276.588 249.270 C 275.542 245.587,275.770 224.441,276.892 221.003 C 277.406 219.429,279.631 220.920,279.921 223.033 C 280.190 224.985,281.685 226.068,283.905 225.917 C 286.444 225.746,286.360 225.902,286.555 220.965 C 286.748 216.094,279.642 212.429,272.917 213.931 M298.917 213.838 C 293.747 214.050,292.363 214.463,291.714 215.988 C 290.704 218.361,290.785 253.085,291.806 255.393 C 292.327 256.572,293.323 257.136,295.833 257.672 C 297.192 257.962,304.337 258.062,309.000 257.857 C 317.571 257.478,318.456 257.079,318.280 253.669 C 318.059 249.377,317.377 248.457,314.690 248.822 C 313.806 248.941,311.077 249.077,308.625 249.124 L 304.167 249.208 304.167 244.431 L 304.167 239.653 306.800 239.701 C 310.914 239.777,311.710 239.057,311.807 235.170 C 311.923 230.534,310.962 229.536,306.549 229.715 L 304.167 229.812 304.167 226.406 L 304.167 223.000 308.988 223.000 C 317.678 223.000,318.279 222.717,318.709 218.418 C 318.991 215.599,318.504 214.894,315.838 214.258 C 313.385 213.674,306.860 213.511,298.917 213.838 M143.667 214.102 C 141.711 214.471,141.440 214.563,140.898 215.039 C 139.654 216.131,139.750 214.400,139.750 235.667 C 139.750 250.983,139.793 254.872,139.969 255.367 C 141.002 258.283,148.782 258.925,151.570 256.325 L 152.243 255.697 152.361 252.474 C 152.472 249.458,152.722 246.031,152.931 244.648 C 153.022 244.045,153.022 244.045,154.047 243.938 C 157.319 243.596,160.928 241.903,163.029 239.724 L 163.808 238.917 164.164 236.342 C 164.671 232.672,166.050 225.562,166.599 223.792 C 166.674 223.549,166.582 223.500,166.053 223.498 C 162.127 223.482,158.448 220.222,157.733 216.123 C 157.603 215.382,157.471 214.749,157.440 214.717 C 157.000 214.278,145.467 213.763,143.667 214.102 M125.296 218.586 C 124.307 219.138,124.220 220.189,125.083 221.145 C 125.779 221.915,125.782 221.945,125.250 222.667 C 124.706 223.405,124.700 224.215,125.236 224.751 C 126.328 225.843,128.000 225.143,128.000 223.593 C 128.000 222.909,128.387 222.794,131.715 222.478 C 133.476 222.312,134.935 222.173,134.958 222.171 C 134.981 222.169,135.000 221.643,135.000 221.003 L 135.000 219.840 134.292 219.925 C 129.184 220.539,127.667 220.518,127.667 219.830 C 127.667 218.895,126.160 218.105,125.296 218.586 M155.509 222.172 C 157.039 222.990,155.941 230.881,153.994 233.061 C 153.336 233.798,153.285 233.648,153.203 230.708 C 153.037 224.776,153.964 221.345,155.509 222.172 M181.167 230.263 L 181.167 238.193 179.458 238.076 C 178.519 238.011,177.722 237.934,177.688 237.903 C 177.544 237.776,179.118 229.207,179.768 226.583 C 180.208 224.808,180.981 222.333,181.097 222.333 C 181.135 222.333,181.167 225.902,181.167 230.263 M244.363 238.037 C 244.156 238.244,241.000 237.990,241.001 237.767 C 241.005 236.323,243.089 226.239,243.865 223.907 L 244.417 222.250 244.460 230.073 C 244.484 234.376,244.440 237.960,244.363 238.037 M96.822 235.728 C 91.052 237.284,90.928 247.360,96.622 251.926 C 97.099 252.308,97.279 252.400,97.072 252.156 C 92.694 247.002,92.806 238.660,97.287 236.131 C 98.515 235.438,98.369 235.311,96.822 235.728 M160.875 246.870 C 160.406 247.096,160.379 248.200,160.803 249.822 C 161.142 251.119,161.543 251.436,161.301 250.215 C 161.214 249.776,161.186 248.798,161.239 248.042 C 161.292 247.285,161.316 246.672,161.293 246.678 C 161.269 246.684,161.081 246.771,160.875 246.870 " stroke="none" fill="#fbf9f7" fill-rule="evenodd"></path><path id="path4" d="M122.125 137.954 C 122.423 137.991,122.910 137.991,123.208 137.954 C 123.506 137.917,123.263 137.887,122.667 137.887 C 122.071 137.887,121.827 137.917,122.125 137.954 M119.240 139.042 L 118.750 139.583 119.292 139.094 C 119.590 138.825,119.833 138.581,119.833 138.552 C 119.833 138.423,119.696 138.537,119.240 139.042 M118.706 140.083 C 118.706 140.358,118.763 140.808,118.833 141.083 C 119.010 141.776,119.018 141.094,118.843 140.250 C 118.727 139.689,118.705 139.663,118.706 140.083 M115.208 142.286 C 115.460 142.324,115.873 142.324,116.125 142.286 C 116.377 142.248,116.171 142.217,115.667 142.217 C 115.162 142.217,114.956 142.248,115.208 142.286 M104.561 144.895 C 103.972 145.484,103.837 145.730,103.852 146.186 L 103.872 146.750 103.999 146.087 C 104.092 145.605,104.320 145.252,104.835 144.795 C 105.224 144.449,105.486 144.167,105.416 144.167 C 105.346 144.167,104.962 144.494,104.561 144.895 M106.042 147.750 C 106.044 148.117,106.078 148.247,106.118 148.040 C 106.158 147.832,106.156 147.532,106.115 147.373 C 106.073 147.214,106.040 147.383,106.042 147.750 M104.000 149.766 C 103.587 149.979,103.309 150.156,103.380 150.160 C 103.627 150.173,104.626 149.700,104.739 149.517 C 104.802 149.416,104.830 149.344,104.802 149.356 C 104.773 149.368,104.412 149.553,104.000 149.766 M100.779 151.693 L 99.917 152.552 100.833 151.746 C 101.337 151.302,101.781 150.916,101.819 150.886 C 101.858 150.857,101.833 150.833,101.765 150.833 C 101.697 150.833,101.254 151.220,100.779 151.693 M86.125 164.762 C 85.479 165.113,85.552 165.234,86.208 164.900 C 86.837 164.580,86.948 164.497,86.736 164.507 C 86.652 164.510,86.377 164.625,86.125 164.762 M83.723 166.311 C 83.280 166.665,82.729 167.171,82.500 167.434 C 82.271 167.696,82.458 167.574,82.917 167.161 C 83.375 166.749,83.975 166.246,84.250 166.044 C 84.525 165.842,84.700 165.675,84.640 165.672 C 84.579 165.669,84.167 165.957,83.723 166.311 M227.792 169.954 C 228.090 169.991,228.577 169.991,228.875 169.954 C 229.173 169.917,228.929 169.887,228.333 169.887 C 227.737 169.887,227.494 169.917,227.792 169.954 M200.542 170.282 C 200.702 170.323,200.965 170.323,201.125 170.282 C 201.285 170.240,201.154 170.205,200.833 170.205 C 200.512 170.205,200.381 170.240,200.542 170.282 M207.296 170.289 C 207.688 170.324,208.288 170.324,208.629 170.288 C 208.971 170.252,208.650 170.223,207.917 170.224 C 207.183 170.224,206.904 170.254,207.296 170.289 M258.708 170.288 C 259.052 170.324,259.615 170.324,259.958 170.288 C 260.302 170.252,260.021 170.223,259.333 170.223 C 258.646 170.223,258.365 170.252,258.708 170.288 M283.875 170.288 C 284.219 170.324,284.781 170.324,285.125 170.288 C 285.469 170.252,285.188 170.223,284.500 170.223 C 283.813 170.223,283.531 170.252,283.875 170.288 M82.762 171.651 L 82.274 172.250 82.837 171.714 C 83.146 171.419,83.366 171.149,83.325 171.115 C 83.284 171.080,83.030 171.321,82.762 171.651 M244.740 176.417 C 244.740 178.892,244.763 179.927,244.791 178.718 C 244.820 177.509,244.820 175.484,244.791 174.218 C 244.763 172.952,244.740 173.942,244.740 176.417 M267.000 172.385 C 267.000 172.414,267.244 172.658,267.542 172.927 L 268.083 173.417 267.594 172.875 C 267.138 172.370,267.000 172.257,267.000 172.385 M292.167 172.385 C 292.167 172.414,292.410 172.658,292.708 172.927 L 293.250 173.417 292.760 172.875 C 292.304 172.370,292.167 172.257,292.167 172.385 M197.904 176.167 C 197.904 178.046,197.928 178.815,197.958 177.875 C 197.987 176.935,197.987 175.398,197.958 174.458 C 197.928 173.519,197.904 174.287,197.904 176.167 M116.209 175.917 C 116.211 176.283,116.245 176.414,116.285 176.206 C 116.324 175.999,116.323 175.699,116.281 175.540 C 116.239 175.380,116.207 175.550,116.209 175.917 M79.860 176.090 C 79.581 176.703,79.634 176.834,79.936 176.277 C 80.077 176.017,80.162 175.773,80.123 175.735 C 80.085 175.696,79.967 175.857,79.860 176.090 M262.714 177.917 C 262.716 178.375,262.748 178.543,262.786 178.289 C 262.825 178.036,262.824 177.661,262.784 177.456 C 262.744 177.251,262.713 177.458,262.714 177.917 M287.872 177.833 C 287.872 178.154,287.906 178.285,287.948 178.125 C 287.990 177.965,287.990 177.702,287.948 177.542 C 287.906 177.381,287.872 177.512,287.872 177.833 M233.218 179.083 C 233.219 179.633,233.250 179.838,233.287 179.539 C 233.325 179.239,233.324 178.789,233.286 178.539 C 233.248 178.288,233.217 178.533,233.218 179.083 M238.225 180.167 C 238.225 180.946,238.254 181.265,238.289 180.875 C 238.324 180.485,238.324 179.848,238.289 179.458 C 238.254 179.069,238.225 179.387,238.225 180.167 M295.542 179.583 C 295.544 179.950,295.578 180.080,295.618 179.873 C 295.658 179.666,295.656 179.366,295.615 179.206 C 295.573 179.047,295.540 179.217,295.542 179.583 M78.562 182.000 C 78.562 182.963,78.589 183.356,78.623 182.875 C 78.657 182.394,78.657 181.606,78.623 181.125 C 78.589 180.644,78.562 181.037,78.562 182.000 M284.221 182.250 C 284.222 182.892,284.252 183.134,284.288 182.788 C 284.324 182.442,284.324 181.917,284.287 181.621 C 284.250 181.325,284.221 181.608,284.221 182.250 M295.542 182.083 C 295.544 182.450,295.578 182.580,295.618 182.373 C 295.658 182.166,295.656 181.866,295.615 181.706 C 295.573 181.547,295.540 181.717,295.542 182.083 M270.372 182.500 C 270.372 182.821,270.406 182.952,270.448 182.792 C 270.490 182.631,270.490 182.369,270.448 182.208 C 270.406 182.048,270.372 182.179,270.372 182.500 M274.409 188.667 C 274.409 192.287,274.431 193.769,274.458 191.958 C 274.485 190.148,274.485 187.185,274.458 185.375 C 274.431 183.565,274.409 185.046,274.409 188.667 M113.703 183.260 C 112.926 183.804,113.408 185.450,114.461 185.850 C 115.587 186.278,116.139 184.676,115.208 183.682 C 114.626 183.060,114.171 182.932,113.703 183.260 M244.539 183.500 C 244.539 183.821,244.573 183.952,244.615 183.792 C 244.657 183.631,244.657 183.369,244.615 183.208 C 244.573 183.048,244.539 183.179,244.539 183.500 M249.242 188.833 C 249.242 191.996,249.264 193.290,249.291 191.708 C 249.319 190.127,249.319 187.540,249.291 185.958 C 249.264 184.377,249.242 185.671,249.242 188.833 M207.709 184.250 C 207.711 184.617,207.745 184.747,207.785 184.540 C 207.824 184.332,207.823 184.032,207.781 183.873 C 207.739 183.714,207.707 183.883,207.709 184.250 M233.056 185.333 C 233.056 186.021,233.085 186.302,233.121 185.958 C 233.157 185.615,233.157 185.052,233.121 184.708 C 233.085 184.365,233.056 184.646,233.056 185.333 M238.050 185.000 C 238.050 185.504,238.081 185.710,238.119 185.458 C 238.158 185.206,238.158 184.794,238.119 184.542 C 238.081 184.290,238.050 184.496,238.050 185.000 M237.875 187.917 C 237.877 188.283,237.911 188.414,237.951 188.206 C 237.991 187.999,237.990 187.699,237.948 187.540 C 237.906 187.380,237.874 187.550,237.875 187.917 M313.074 193.000 C 313.074 195.887,313.097 197.069,313.125 195.625 C 313.152 194.181,313.152 191.819,313.125 190.375 C 313.097 188.931,313.074 190.112,313.074 193.000 M303.205 189.333 C 303.205 189.654,303.240 189.785,303.282 189.625 C 303.323 189.465,303.323 189.202,303.282 189.042 C 303.240 188.881,303.205 189.012,303.205 189.333 M215.658 190.125 L 215.083 190.750 215.708 190.176 C 216.052 189.860,216.333 189.578,216.333 189.551 C 216.333 189.423,216.192 189.543,215.658 190.125 M223.039 191.667 C 223.039 191.987,223.073 192.119,223.115 191.958 C 223.157 191.798,223.157 191.535,223.115 191.375 C 223.073 191.215,223.039 191.346,223.039 191.667 M164.708 192.163 C 163.716 193.088,162.221 193.874,160.750 194.244 C 159.896 194.459,159.653 194.612,159.088 195.289 C 146.653 210.196,123.699 213.444,105.500 202.873 L 103.750 201.856 103.702 203.447 C 103.661 204.811,103.696 205.071,103.952 205.273 C 111.445 211.191,123.134 214.652,133.693 214.079 L 135.802 213.965 136.428 213.056 C 138.498 210.050,140.154 209.504,147.569 209.380 L 152.555 209.297 153.981 208.143 C 156.308 206.261,159.107 205.022,162.427 204.406 C 162.616 204.371,163.507 203.647,164.407 202.796 L 166.044 201.250 165.814 200.000 C 165.662 199.177,165.583 197.484,165.583 195.042 C 165.583 193.002,165.583 191.336,165.583 191.340 C 165.583 191.343,165.189 191.714,164.708 192.163 M135.096 193.383 C 136.198 196.959,140.833 197.084,141.575 193.558 L 141.686 193.033 141.028 193.659 C 139.624 194.995,136.921 194.954,135.542 193.575 C 135.075 193.109,135.001 193.077,135.096 193.383 M132.919 194.026 C 131.748 195.267,129.382 195.618,127.929 194.766 C 127.055 194.254,126.933 194.438,127.546 195.346 C 128.952 197.434,132.342 196.983,133.257 194.588 C 133.636 193.595,133.515 193.394,132.919 194.026 M143.189 193.762 C 143.102 195.093,141.940 196.764,140.758 197.257 C 140.292 197.452,140.199 197.589,140.117 198.198 C 139.996 199.097,139.968 199.084,140.856 198.522 C 142.103 197.731,143.513 194.992,143.286 193.802 C 143.220 193.459,143.210 193.455,143.189 193.762 M233.042 195.083 C 233.044 195.450,233.078 195.580,233.118 195.373 C 233.158 195.166,233.156 194.866,233.115 194.706 C 233.073 194.547,233.040 194.717,233.042 195.083 M125.504 195.167 C 125.489 196.247,127.311 198.691,128.625 199.352 C 129.060 199.571,129.480 199.825,129.557 199.917 C 129.636 200.010,129.647 199.937,129.581 199.750 C 129.517 199.567,129.392 199.169,129.305 198.866 C 129.217 198.563,129.019 198.275,128.865 198.227 C 127.419 197.773,126.410 196.904,125.820 195.606 C 125.648 195.227,125.506 195.029,125.504 195.167 M303.053 196.000 C 303.053 196.596,303.084 196.840,303.121 196.542 C 303.158 196.244,303.158 195.756,303.121 195.458 C 303.084 195.160,303.053 195.404,303.053 196.000 M207.205 197.000 C 207.205 197.321,207.240 197.452,207.282 197.292 C 207.323 197.131,207.323 196.869,207.282 196.708 C 207.240 196.548,207.205 196.679,207.205 197.000 M197.898 198.917 C 197.898 200.108,197.925 200.574,197.957 199.951 C 197.989 199.329,197.989 198.354,197.957 197.785 C 197.924 197.216,197.898 197.725,197.898 198.917 M283.705 198.000 C 283.705 198.321,283.740 198.452,283.782 198.292 C 283.823 198.131,283.823 197.869,283.782 197.708 C 283.740 197.548,283.705 197.679,283.705 198.000 M283.559 201.417 C 283.559 202.242,283.587 202.600,283.622 202.213 C 283.657 201.827,283.657 201.152,283.623 200.713 C 283.588 200.275,283.560 200.592,283.559 201.417 M258.388 201.750 C 258.389 202.392,258.419 202.634,258.455 202.288 C 258.491 201.942,258.490 201.417,258.454 201.121 C 258.417 200.825,258.387 201.108,258.388 201.750 M249.375 201.583 C 249.377 201.950,249.411 202.080,249.451 201.873 C 249.491 201.666,249.490 201.366,249.448 201.206 C 249.406 201.047,249.374 201.217,249.375 201.583 M227.000 201.750 C 227.311 202.071,227.603 202.333,227.649 202.333 C 227.695 202.333,227.478 202.071,227.167 201.750 C 226.856 201.429,226.564 201.167,226.518 201.167 C 226.472 201.167,226.689 201.429,227.000 201.750 M308.875 204.615 C 309.035 204.657,309.298 204.657,309.458 204.615 C 309.619 204.573,309.487 204.539,309.167 204.539 C 308.846 204.539,308.715 204.573,308.875 204.615 M109.827 211.487 C 110.779 213.266,113.845 215.352,117.534 216.729 C 119.611 217.505,119.762 217.488,118.043 216.673 C 116.240 215.818,114.406 214.537,113.305 213.364 C 112.469 212.473,112.135 212.259,110.372 211.487 C 109.676 211.183,109.663 211.183,109.827 211.487 M108.468 213.125 C 108.740 213.469,109.138 213.900,109.351 214.083 C 109.564 214.267,109.423 214.050,109.036 213.602 C 108.650 213.153,108.333 212.722,108.333 212.643 C 108.333 212.564,108.252 212.500,108.153 212.500 C 108.053 212.500,108.195 212.781,108.468 213.125 M246.208 213.782 C 246.369 213.823,246.631 213.823,246.792 213.782 C 246.952 213.740,246.821 213.705,246.500 213.705 C 246.179 213.705,246.048 213.740,246.208 213.782 M299.875 213.788 C 300.219 213.824,300.781 213.824,301.125 213.788 C 301.469 213.752,301.188 213.723,300.500 213.723 C 299.813 213.723,299.531 213.752,299.875 213.788 M153.044 214.120 C 153.297 214.158,153.672 214.157,153.877 214.117 C 154.082 214.078,153.875 214.046,153.417 214.048 C 152.958 214.049,152.791 214.081,153.044 214.120 M291.375 217.083 C 291.377 217.450,291.411 217.580,291.451 217.373 C 291.491 217.166,291.490 216.866,291.448 216.706 C 291.406 216.547,291.374 216.717,291.375 217.083 M200.545 217.333 C 200.545 217.746,200.578 217.915,200.618 217.708 C 200.657 217.502,200.657 217.165,200.618 216.958 C 200.578 216.752,200.545 216.921,200.545 217.333 M139.721 218.583 C 139.722 219.225,139.752 219.467,139.788 219.121 C 139.824 218.775,139.824 218.250,139.787 217.955 C 139.750 217.659,139.721 217.942,139.721 218.583 M133.708 219.948 C 133.869 219.990,134.131 219.990,134.292 219.948 C 134.452 219.906,134.321 219.872,134.000 219.872 C 133.679 219.872,133.548 219.906,133.708 219.948 M200.389 221.000 C 200.389 221.688,200.419 221.969,200.455 221.625 C 200.491 221.281,200.491 220.719,200.455 220.375 C 200.419 220.031,200.389 220.313,200.389 221.000 M291.217 220.667 C 291.217 221.171,291.248 221.377,291.286 221.125 C 291.324 220.873,291.324 220.460,291.286 220.208 C 291.248 219.956,291.217 220.162,291.217 220.667 M131.875 220.115 C 132.035 220.157,132.298 220.157,132.458 220.115 C 132.619 220.073,132.487 220.039,132.167 220.039 C 131.846 220.039,131.715 220.073,131.875 220.115 M286.550 220.833 C 286.550 221.338,286.581 221.544,286.619 221.292 C 286.658 221.040,286.658 220.627,286.619 220.375 C 286.581 220.123,286.550 220.329,286.550 220.833 M108.023 221.820 C 108.010 222.042,107.872 222.380,107.715 222.570 C 107.436 222.908,107.439 222.908,107.812 222.564 C 108.072 222.326,108.171 222.083,108.121 221.814 L 108.045 221.417 108.023 221.820 M109.500 222.833 L 109.083 222.967 109.542 222.983 C 109.794 222.993,110.000 222.925,110.000 222.833 C 110.000 222.742,109.981 222.674,109.958 222.683 C 109.935 222.692,109.729 222.760,109.500 222.833 M305.792 223.124 C 306.731 223.154,308.269 223.154,309.208 223.124 C 310.148 223.095,309.379 223.070,307.500 223.070 C 305.621 223.070,304.852 223.095,305.792 223.124 M103.658 223.792 L 103.083 224.417 103.708 223.842 C 104.290 223.308,104.410 223.167,104.283 223.167 C 104.255 223.167,103.974 223.448,103.658 223.792 M286.375 224.583 C 286.377 224.950,286.411 225.080,286.451 224.873 C 286.491 224.666,286.490 224.366,286.448 224.206 C 286.406 224.047,286.374 224.217,286.375 224.583 M156.214 225.083 C 156.216 225.542,156.248 225.709,156.286 225.456 C 156.325 225.203,156.324 224.828,156.284 224.623 C 156.244 224.418,156.213 224.625,156.214 225.083 M291.045 225.000 C 291.045 225.412,291.078 225.581,291.118 225.375 C 291.157 225.169,291.157 224.831,291.118 224.625 C 291.078 224.419,291.045 224.588,291.045 225.000 M200.217 225.667 C 200.217 226.171,200.248 226.377,200.286 226.125 C 200.324 225.873,200.324 225.460,200.286 225.208 C 200.248 224.956,200.217 225.162,200.217 225.667 M214.209 225.583 C 214.211 225.950,214.245 226.080,214.285 225.873 C 214.324 225.666,214.323 225.366,214.281 225.206 C 214.239 225.047,214.207 225.217,214.209 225.583 M214.045 228.000 C 214.045 228.412,214.078 228.581,214.118 228.375 C 214.157 228.169,214.157 227.831,214.118 227.625 C 214.078 227.419,214.045 227.588,214.045 228.000 M100.083 227.833 C 99.659 228.016,100.097 228.016,100.667 227.833 C 101.002 227.726,101.018 227.699,100.750 227.695 C 100.567 227.692,100.267 227.755,100.083 227.833 M98.958 228.262 C 98.312 228.613,98.385 228.734,99.042 228.400 C 99.670 228.080,99.781 227.997,99.569 228.007 C 99.485 228.010,99.210 228.125,98.958 228.262 M194.205 228.667 C 194.205 228.987,194.240 229.119,194.282 228.958 C 194.323 228.798,194.323 228.535,194.282 228.375 C 194.240 228.215,194.205 228.346,194.205 228.667 M262.205 229.333 C 262.205 229.654,262.240 229.785,262.282 229.625 C 262.323 229.465,262.323 229.202,262.282 229.042 C 262.240 228.881,262.205 229.012,262.205 229.333 M276.042 230.083 C 276.044 230.450,276.078 230.580,276.118 230.373 C 276.158 230.166,276.156 229.866,276.115 229.706 C 276.073 229.547,276.040 229.717,276.042 230.083 M213.883 231.000 C 213.883 231.504,213.915 231.710,213.953 231.458 C 213.991 231.206,213.991 230.794,213.953 230.542 C 213.915 230.290,213.883 230.496,213.883 231.000 M290.887 231.167 C 290.887 231.762,290.917 232.006,290.954 231.708 C 290.991 231.410,290.991 230.923,290.954 230.625 C 290.917 230.327,290.887 230.571,290.887 231.167 M262.066 233.917 C 262.066 235.200,262.092 235.703,262.124 235.034 C 262.156 234.366,262.155 233.316,262.123 232.701 C 262.091 232.086,262.065 232.633,262.066 233.917 M96.030 232.958 C 96.002 233.769,96.028 233.832,96.375 233.814 C 96.643 233.800,96.669 233.773,96.467 233.720 C 96.264 233.667,96.167 233.424,96.122 232.864 L 96.060 232.083 96.030 232.958 M257.392 233.500 C 257.392 234.279,257.420 234.598,257.455 234.208 C 257.490 233.819,257.490 233.181,257.455 232.792 C 257.420 232.402,257.392 232.721,257.392 233.500 M311.896 234.667 C 311.896 235.721,311.923 236.152,311.956 235.625 C 311.990 235.098,311.990 234.235,311.956 233.708 C 311.923 233.181,311.896 233.612,311.896 234.667 M200.064 235.000 C 200.064 236.146,200.091 236.615,200.123 236.042 C 200.156 235.469,200.156 234.531,200.123 233.958 C 200.091 233.385,200.064 233.854,200.064 235.000 M139.574 238.250 C 139.574 241.000,139.597 242.148,139.625 240.802 C 139.653 239.456,139.653 237.206,139.625 235.802 C 139.597 234.398,139.574 235.500,139.574 238.250 M97.208 233.615 C 97.369 233.657,97.631 233.657,97.792 233.615 C 97.952 233.573,97.821 233.539,97.500 233.539 C 97.179 233.539,97.048 233.573,97.208 233.615 M213.714 234.583 C 213.716 235.042,213.748 235.209,213.786 234.956 C 213.825 234.703,213.824 234.328,213.784 234.123 C 213.744 233.918,213.713 234.125,213.714 234.583 M275.906 238.500 C 275.906 240.838,275.929 241.794,275.958 240.625 C 275.987 239.456,275.987 237.544,275.958 236.375 C 275.929 235.206,275.906 236.162,275.906 238.500 M194.545 236.000 C 194.545 236.412,194.578 236.581,194.618 236.375 C 194.657 236.169,194.657 235.831,194.618 235.625 C 194.578 235.419,194.545 235.588,194.545 236.000 M97.417 236.027 C 93.182 238.576,92.572 244.827,96.005 250.508 C 96.385 251.137,96.651 251.724,96.596 251.812 C 96.463 252.027,97.499 252.864,98.672 253.489 C 104.369 256.526,109.167 252.051,107.738 245.035 C 106.582 239.356,100.584 234.121,97.417 236.027 M290.889 238.500 C 290.889 239.188,290.919 239.469,290.955 239.125 C 290.991 238.781,290.991 238.219,290.955 237.875 C 290.919 237.531,290.889 237.813,290.889 238.500 M98.982 238.261 C 99.608 238.787,99.865 239.620,99.647 240.412 C 99.201 242.027,96.898 241.795,96.332 240.078 C 95.769 238.375,97.614 237.110,98.982 238.261 M180.044 238.120 C 180.297 238.158,180.672 238.157,180.877 238.117 C 181.082 238.078,180.875 238.046,180.417 238.048 C 179.958 238.049,179.791 238.081,180.044 238.120 M243.292 238.118 C 243.498 238.157,243.835 238.157,244.042 238.118 C 244.248 238.078,244.079 238.045,243.667 238.045 C 243.254 238.045,243.085 238.078,243.292 238.118 M262.053 240.000 C 262.053 240.596,262.084 240.840,262.121 240.542 C 262.158 240.244,262.158 239.756,262.121 239.458 C 262.084 239.160,262.053 239.404,262.053 240.000 M162.906 239.875 L 162.417 240.417 162.958 239.927 C 163.256 239.658,163.500 239.414,163.500 239.385 C 163.500 239.257,163.362 239.370,162.906 239.875 M103.488 240.106 C 103.981 240.733,103.952 241.730,103.424 242.258 C 102.121 243.561,100.400 241.603,101.598 240.179 C 102.170 239.500,102.986 239.468,103.488 240.106 M306.042 239.782 C 306.202 239.823,306.465 239.823,306.625 239.782 C 306.785 239.740,306.654 239.705,306.333 239.705 C 306.012 239.705,305.881 239.740,306.042 239.782 M96.075 242.236 C 97.549 242.852,97.292 244.833,95.739 244.833 C 94.223 244.833,93.543 242.709,94.886 242.168 C 95.387 241.966,95.435 241.969,96.075 242.236 M194.742 248.417 C 194.742 251.992,194.765 253.430,194.791 251.614 C 194.818 249.797,194.818 246.872,194.791 245.114 C 194.764 243.355,194.742 244.842,194.742 248.417 M200.058 243.833 C 200.058 244.612,200.087 244.931,200.122 244.542 C 200.157 244.152,200.157 243.515,200.122 243.125 C 200.087 242.735,200.058 243.054,200.058 243.833 M102.793 244.609 C 103.980 245.343,104.720 246.846,104.636 248.352 C 104.379 252.979,97.959 252.345,97.695 247.667 C 97.520 244.568,100.163 242.983,102.793 244.609 M291.045 245.167 C 291.045 245.579,291.078 245.748,291.118 245.542 C 291.157 245.335,291.157 244.998,291.118 244.792 C 291.078 244.585,291.045 244.754,291.045 245.167 M162.136 246.141 L 161.355 246.575 161.240 247.801 C 161.177 248.475,161.197 249.474,161.285 250.021 C 161.416 250.831,161.404 250.999,161.222 250.929 C 160.868 250.793,161.553 252.004,162.151 252.573 C 162.605 253.003,162.667 253.023,162.669 252.740 C 162.674 252.123,162.990 247.578,163.094 246.625 C 163.213 245.546,163.209 245.544,162.136 246.141 M258.073 250.417 C 258.073 252.892,258.096 253.927,258.124 252.718 C 258.153 251.509,258.153 249.484,258.125 248.218 C 258.096 246.952,258.073 247.942,258.073 250.417 M152.705 246.833 C 152.705 247.154,152.740 247.285,152.782 247.125 C 152.823 246.965,152.823 246.702,152.782 246.542 C 152.740 246.381,152.705 246.512,152.705 246.833 M160.379 247.667 C 160.379 248.079,160.411 248.248,160.451 248.042 C 160.491 247.835,160.491 247.498,160.451 247.292 C 160.411 247.085,160.379 247.254,160.379 247.667 M152.545 248.833 C 152.545 249.246,152.578 249.415,152.618 249.208 C 152.657 249.002,152.657 248.665,152.618 248.458 C 152.578 248.252,152.545 248.421,152.545 248.833 M225.940 248.333 C 226.045 248.471,226.168 248.733,226.213 248.917 C 226.291 249.233,226.296 249.232,226.314 248.895 C 226.325 248.700,226.202 248.438,226.042 248.312 C 225.788 248.113,225.775 248.116,225.940 248.333 M176.278 248.444 C 176.217 248.506,176.168 248.637,176.169 248.736 C 176.171 248.856,176.213 248.852,176.294 248.725 C 176.362 248.620,176.604 248.499,176.833 248.456 L 177.250 248.379 176.819 248.356 C 176.583 248.344,176.339 248.383,176.278 248.444 M239.558 248.591 C 239.503 248.732,239.506 248.894,239.563 248.952 C 239.620 249.009,239.667 248.936,239.667 248.789 C 239.667 248.626,239.845 248.495,240.125 248.453 L 240.583 248.383 240.120 248.358 C 239.838 248.343,239.618 248.434,239.558 248.591 M179.960 248.618 C 180.168 248.658,180.468 248.656,180.627 248.615 C 180.786 248.573,180.617 248.540,180.250 248.542 C 179.883 248.544,179.753 248.578,179.960 248.618 M243.294 248.618 C 243.501 248.658,243.801 248.656,243.960 248.615 C 244.120 248.573,243.950 248.540,243.583 248.542 C 243.217 248.544,243.086 248.578,243.294 248.618 M244.570 251.917 C 244.570 253.750,244.594 254.523,244.624 253.634 C 244.654 252.745,244.654 251.245,244.624 250.301 C 244.595 249.356,244.570 250.083,244.570 251.917 M286.552 249.750 C 286.553 250.300,286.584 250.505,286.621 250.205 C 286.658 249.906,286.657 249.456,286.619 249.205 C 286.581 248.955,286.551 249.200,286.552 249.750 M291.218 249.917 C 291.219 250.467,291.250 250.672,291.287 250.372 C 291.325 250.072,291.324 249.622,291.286 249.372 C 291.248 249.122,291.217 249.367,291.218 249.917 M310.875 249.115 C 311.035 249.157,311.298 249.157,311.458 249.115 C 311.619 249.073,311.487 249.039,311.167 249.039 C 310.846 249.039,310.715 249.073,310.875 249.115 M152.388 251.917 C 152.389 252.558,152.419 252.800,152.455 252.455 C 152.491 252.109,152.490 251.584,152.454 251.288 C 152.417 250.992,152.387 251.275,152.388 251.917 M226.055 251.917 C 226.055 252.558,226.086 252.800,226.122 252.455 C 226.158 252.109,226.157 251.584,226.120 251.288 C 226.083 250.992,226.054 251.275,226.055 251.917 M200.372 251.667 C 200.372 251.987,200.406 252.119,200.448 251.958 C 200.490 251.798,200.490 251.535,200.448 251.375 C 200.406 251.215,200.372 251.346,200.372 251.667 M139.714 252.417 C 139.716 252.875,139.748 253.043,139.786 252.789 C 139.825 252.536,139.824 252.161,139.784 251.956 C 139.744 251.751,139.713 251.958,139.714 252.417 M230.705 252.167 C 230.705 252.487,230.740 252.619,230.782 252.458 C 230.823 252.298,230.823 252.035,230.782 251.875 C 230.740 251.715,230.705 251.846,230.705 252.167 M167.379 252.500 C 167.379 252.912,167.411 253.081,167.451 252.875 C 167.491 252.669,167.491 252.331,167.451 252.125 C 167.411 251.919,167.379 252.088,167.379 252.500 M291.379 253.833 C 291.379 254.246,291.411 254.415,291.451 254.208 C 291.491 254.002,291.491 253.665,291.451 253.458 C 291.411 253.252,291.379 253.421,291.379 253.833 M266.500 254.052 C 266.500 254.081,266.744 254.325,267.042 254.594 L 267.583 255.083 267.094 254.542 C 266.638 254.037,266.500 253.923,266.500 254.052 M238.872 254.667 C 238.872 254.987,238.906 255.119,238.948 254.958 C 238.990 254.798,238.990 254.535,238.948 254.375 C 238.906 254.215,238.872 254.346,238.872 254.667 M175.539 254.833 C 175.539 255.154,175.573 255.285,175.615 255.125 C 175.657 254.965,175.657 254.702,175.615 254.542 C 175.573 254.381,175.539 254.512,175.539 254.833 M206.375 257.782 C 206.535 257.823,206.798 257.823,206.958 257.782 C 207.119 257.740,206.987 257.705,206.667 257.705 C 206.346 257.705,206.215 257.740,206.375 257.782 M220.208 257.782 C 220.369 257.823,220.631 257.823,220.792 257.782 C 220.952 257.740,220.821 257.705,220.500 257.705 C 220.179 257.705,220.048 257.740,220.208 257.782 M311.960 257.785 C 312.168 257.824,312.468 257.823,312.627 257.781 C 312.786 257.739,312.617 257.707,312.250 257.709 C 311.883 257.711,311.753 257.745,311.960 257.785 M217.458 257.951 C 217.665 257.991,218.002 257.991,218.208 257.951 C 218.415 257.911,218.246 257.879,217.833 257.879 C 217.421 257.879,217.252 257.911,217.458 257.951 M297.460 257.951 C 297.668 257.991,297.968 257.990,298.127 257.948 C 298.286 257.906,298.117 257.874,297.750 257.875 C 297.383 257.877,297.253 257.911,297.460 257.951 M307.963 257.956 C 308.355 257.991,308.955 257.990,309.296 257.954 C 309.637 257.919,309.317 257.890,308.583 257.890 C 307.850 257.891,307.571 257.920,307.963 257.956 " stroke="none" fill="#b099ab" fill-rule="evenodd"></path></g></svg>